<?xml version="1.0" standalone="no"?>
<!DOCTYPE svg PUBLIC "-//W3C//DTD SVG 20010904//EN"
 "http://www.w3.org/TR/2001/REC-SVG-20010904/DTD/svg10.dtd">
<svg version="1.0" xmlns="http://www.w3.org/2000/svg"
 width="735.000000pt" height="616.000000pt" viewBox="0 0 735.000000 616.000000"
 preserveAspectRatio="xMidYMid meet">

<g transform="translate(0.000000,616.000000) scale(0.100000,-0.100000)"
fill="#000000" stroke="none">
<path d="M7136 5915 c10 -8 23 -15 28 -15 6 0 1 7 -10 15 -10 8 -23 15 -28 15
-6 0 -1 -7 10 -15z"/>
<path d="M6990 5626 c0 -2 8 -10 18 -17 15 -13 16 -12 3 4 -13 16 -21 21 -21
13z"/>
<path d="M7030 5593 c1 -9 120 -97 124 -92 2 2 -26 25 -61 52 -34 26 -63 44
-63 40z"/>
<path d="M7280 5400 c40 -36 77 -59 66 -41 -4 6 -28 25 -54 42 l-47 30 35 -31z"/>
<path d="M6970 5225 c0 -2 10 -10 23 -16 20 -11 21 -11 8 4 -13 16 -31 23 -31
12z"/>
<path d="M7254 5012 c4 -6 28 -26 53 -43 60 -42 49 -24 -13 21 -26 18 -44 28
-40 22z"/>
<path d="M6870 4897 c0 -3 17 -17 37 -33 20 -15 33 -23 29 -16 -8 13 -66 56
-66 49z"/>
<path d="M4365 4800 c-15 -6 -8 -9 28 -9 30 -1 46 3 42 9 -7 12 -42 12 -70 0z"/>
<path d="M4536 4781 c-4 -7 -5 -15 -2 -18 9 -9 19 4 14 18 -4 11 -6 11 -12 0z"/>
<path d="M4480 4735 c0 -19 11 -19 36 0 18 14 18 14 -8 15 -18 0 -28 -5 -28
-15z"/>
<path d="M7080 4738 c0 -6 115 -98 153 -122 15 -10 27 -16 27 -13 0 5 -49 42
-161 126 -11 7 -19 11 -19 9z"/>
<path d="M4605 4710 c-3 -5 1 -10 9 -10 8 0 18 5 21 10 3 6 -1 10 -9 10 -8 0
-18 -4 -21 -10z"/>
<path d="M4740 4716 c0 -2 9 -6 20 -9 11 -3 18 -1 14 4 -5 9 -34 13 -34 5z"/>
<path d="M6580 4706 c0 -2 8 -10 18 -17 15 -13 16 -12 3 4 -13 16 -21 21 -21
13z"/>
<path d="M4670 4634 c0 -14 4 -23 10 -19 5 3 21 -6 34 -22 13 -15 27 -25 31
-21 4 4 -2 17 -14 29 -12 13 -21 28 -21 35 0 10 -21 24 -36 24 -2 0 -4 -12 -4
-26z"/>
<path d="M4790 4650 c0 -5 5 -10 11 -10 5 0 7 5 4 10 -3 6 -8 10 -11 10 -2 0
-4 -4 -4 -10z"/>
<path d="M2745 4635 c-129 -29 -256 -81 -361 -148 -99 -62 -280 -264 -288
-322 -1 -8 -12 -27 -24 -42 -12 -15 -22 -33 -22 -41 0 -7 -6 -23 -14 -35 -8
-12 -16 -37 -18 -56 -3 -29 0 -34 20 -36 19 -1 23 5 29 37 3 22 9 36 12 30 3
-5 23 9 44 31 22 22 32 37 23 34 -19 -7 -20 -3 -6 24 12 21 84 62 94 52 3 -4
6 -2 6 4 0 6 9 13 19 16 11 3 29 20 40 38 12 19 21 28 21 22 0 -24 28 -13 34
12 4 16 17 30 34 36 32 11 102 43 152 69 19 9 50 21 68 25 17 3 32 10 32 14 0
5 51 11 113 15 61 4 128 12 147 17 33 10 127 0 295 -32 28 -5 70 -13 95 -17
25 -5 65 -22 89 -38 24 -16 54 -35 67 -42 13 -7 24 -17 24 -22 0 -5 16 -14 36
-20 20 -7 50 -24 67 -40 18 -15 42 -32 55 -39 12 -6 22 -17 22 -23 0 -6 15
-26 33 -44 51 -51 89 -103 83 -113 -5 -8 34 -41 49 -41 27 0 -29 165 -94 274
-44 75 -178 211 -259 264 -87 56 -218 110 -324 132 -110 23 -300 25 -393 5z"/>
<path d="M4844 4624 c3 -9 6 -22 6 -31 0 -9 6 -13 15 -9 20 7 45 -3 45 -18 0
-7 11 -19 25 -26 14 -7 25 -22 25 -32 0 -10 5 -18 10 -18 6 0 10 -7 10 -15 0
-8 -7 -15 -17 -15 -9 0 -13 -3 -9 -7 10 -10 79 -33 101 -33 11 0 32 -7 48 -14
15 -8 27 -11 27 -5 0 5 -4 9 -9 9 -5 0 -18 15 -30 33 -11 17 -30 38 -43 46
-21 13 -22 13 -10 -1 10 -13 10 -17 -4 -22 -23 -9 -24 -8 -24 14 0 11 -4 20
-10 20 -5 0 -10 7 -10 15 0 8 4 15 10 15 5 0 14 9 21 21 14 27 -3 48 -24 31
-10 -8 -16 -9 -24 -1 -10 10 -120 59 -132 59 -2 0 0 -7 3 -16z"/>
<path d="M5040 4547 c0 -10 8 -17 18 -17 9 0 13 4 7 8 -5 4 -13 11 -17 16 -5
5 -8 2 -8 -7z"/>
<path d="M6830 4516 c0 -2 8 -10 18 -17 15 -13 16 -12 3 4 -13 16 -21 21 -21
13z"/>
<path d="M6887 4469 c12 -12 24 -21 27 -18 2 2 -8 13 -22 23 l-27 19 22 -24z"/>
<path d="M4805 4430 c-3 -5 -1 -10 4 -10 6 0 11 5 11 10 0 6 -2 10 -4 10 -3 0
-8 -4 -11 -10z"/>
<path d="M4880 4419 c0 -5 5 -7 10 -4 6 3 10 8 10 11 0 2 -4 4 -10 4 -5 0 -10
-5 -10 -11z"/>
<path d="M4855 4410 c-3 -5 -1 -10 4 -10 6 0 11 5 11 10 0 6 -2 10 -4 10 -3 0
-8 -4 -11 -10z"/>
<path d="M5197 4412 c-7 -10 4 -62 12 -62 4 0 5 16 3 35 -4 36 -7 41 -15 27z"/>
<path d="M7004 4383 c11 -19 172 -143 185 -143 7 0 -28 30 -76 66 -48 36 -94
71 -102 78 -11 8 -13 8 -7 -1z"/>
<path d="M6435 4340 c10 -11 20 -20 23 -20 3 0 -3 9 -13 20 -10 11 -20 20 -23
20 -3 0 3 -9 13 -20z"/>
<path d="M4931 4334 c0 -11 3 -14 6 -6 3 7 2 16 -1 19 -3 4 -6 -2 -5 -13z"/>
<path d="M5207 4322 l-27 -3 27 -37 c41 -57 46 -60 27 -19 -16 33 -16 39 -4
47 19 12 11 16 -23 12z"/>
<path d="M5261 4283 c-1 -12 4 -25 9 -28 12 -7 12 2 0 30 -8 19 -9 19 -9 -2z"/>
<path d="M6395 4244 c6 -5 23 -20 40 -34 29 -24 29 -24 10 -2 -11 13 -29 28
-40 34 -11 6 -15 6 -10 2z"/>
<path d="M6590 4226 c0 -2 8 -10 18 -17 15 -13 16 -12 3 4 -13 16 -21 21 -21
13z"/>
<path d="M5250 4207 c0 -8 12 -24 26 -38 l26 -24 -22 38 c-23 40 -30 45 -30
24z"/>
<path d="M5190 4200 c0 -5 5 -10 11 -10 5 0 7 5 4 10 -3 6 -8 10 -11 10 -2 0
-4 -4 -4 -10z"/>
<path d="M6630 4197 c0 -3 18 -20 40 -37 22 -17 40 -29 40 -27 0 3 -18 20 -40
37 -22 17 -40 29 -40 27z"/>
<path d="M7260 4182 c0 -5 20 -23 45 -41 25 -18 45 -29 44 -24 0 11 -89 75
-89 65z"/>
<path d="M6515 4150 c10 -11 20 -20 23 -20 3 0 -3 9 -13 20 -10 11 -20 20 -23
20 -3 0 3 -9 13 -20z"/>
<path d="M6724 4121 c7 -11 46 -35 46 -28 0 3 -12 12 -26 22 -15 9 -23 12 -20
6z"/>
<path d="M6600 4081 c19 -16 37 -27 39 -26 5 5 -52 54 -64 55 -5 0 6 -13 25
-29z"/>
<path d="M1007 4070 c-14 -50 -20 -157 -9 -164 7 -4 14 4 18 21 3 15 10 46 16
67 6 25 6 41 0 45 -6 3 -12 17 -14 31 l-3 25 -8 -25z"/>
<path d="M5326 4074 c-4 -10 3 -29 17 -48 12 -17 29 -43 36 -58 23 -44 24 -25
3 37 -23 68 -46 96 -56 69z"/>
<path d="M6650 4046 c0 -2 12 -12 28 -21 l27 -18 -19 21 c-17 20 -36 29 -36
18z"/>
<path d="M6710 4003 c0 -4 15 -18 33 -30 17 -13 42 -30 55 -39 12 -9 22 -14
22 -11 0 2 -25 23 -55 46 -30 23 -55 38 -55 34z"/>
<path d="M1995 3930 c-9 -14 4 -52 16 -45 12 8 12 42 0 50 -5 3 -12 1 -16 -5z"/>
<path d="M6850 3893 c0 -5 13 -17 30 -26 16 -10 35 -23 42 -30 28 -26 98 -78
98 -72 0 9 -47 49 -112 95 -32 23 -58 37 -58 33z"/>
<path d="M1980 3844 c0 -14 4 -23 9 -20 5 3 7 15 4 26 -7 28 -13 25 -13 -6z"/>
<path d="M7140 3796 c0 -2 8 -10 18 -17 15 -13 16 -12 3 4 -13 16 -21 21 -21
13z"/>
<path d="M7070 3721 c25 -22 50 -40 55 -40 12 0 -51 55 -80 70 -11 6 0 -7 25
-30z"/>
<path d="M7236 3718 c44 -33 53 -36 19 -6 -16 15 -34 28 -39 28 -5 0 4 -10 20
-22z"/>
<path d="M5470 3706 c0 -9 5 -16 10 -16 6 0 10 4 10 9 0 6 -4 13 -10 16 -5 3
-10 -1 -10 -9z"/>
<path d="M7140 3672 c0 -4 9 -13 20 -20 11 -7 20 -9 20 -4 0 4 -9 13 -20 20
-11 7 -20 9 -20 4z"/>
<path d="M7190 3626 c0 -2 16 -14 35 -26 20 -12 42 -29 50 -37 8 -8 15 -10 15
-5 0 5 -20 23 -44 40 -42 30 -56 37 -56 28z"/>
<path d="M7305 3540 c3 -5 8 -10 11 -10 2 0 4 5 4 10 0 6 -5 10 -11 10 -5 0
-7 -4 -4 -10z"/>
<path d="M301 3226 c-1 -29 2 -37 10 -29 8 8 8 19 1 40 -10 28 -10 28 -11 -11z"/>
<path d="M960 3013 c0 -5 12 -15 28 -22 15 -8 36 -18 47 -24 124 -67 193 -87
273 -79 29 2 52 7 52 11 -1 12 -103 56 -123 53 -12 -2 -17 1 -13 7 4 6 0 11
-9 11 -9 0 -14 -4 -11 -8 6 -10 -91 2 -101 12 -5 5 3 5 17 1 14 -4 22 -4 18 0
-4 4 -37 13 -75 20 -37 7 -76 16 -85 20 -10 4 -18 3 -18 -2z"/>
<path d="M3355 2730 c-145 -69 -347 -109 -559 -111 -76 -1 -112 -4 -96 -9 14
-4 19 -8 13 -9 -21 -2 -14 -21 7 -21 11 0 20 -5 20 -11 0 -6 -7 -9 -14 -6 -10
4 -13 1 -9 -9 3 -7 9 -14 13 -14 5 0 15 -21 23 -47 9 -27 22 -64 29 -83 15
-38 95 -130 113 -130 6 0 22 -13 37 -30 21 -24 34 -30 67 -30 23 0 41 3 41 8
0 4 10 12 23 17 12 6 23 19 25 30 2 11 13 25 25 30 12 6 24 19 26 30 5 28 20
45 42 45 11 0 19 6 19 13 0 8 12 24 26 38 14 13 32 38 41 56 8 18 19 33 24 33
5 0 9 9 9 20 0 11 9 25 20 32 11 7 20 21 20 30 0 11 8 18 19 18 13 0 20 10 24
36 3 20 14 43 24 51 17 14 17 14 0 9 -11 -4 -16 -2 -12 5 4 5 15 7 26 4 15 -5
19 -1 19 14 0 27 -12 26 -85 -9z"/>
<path d="M1075 2390 c-3 -5 -2 -10 4 -10 5 0 13 5 16 10 3 6 2 10 -4 10 -5 0
-13 -4 -16 -10z"/>
<path d="M1345 1760 c-3 -5 -1 -10 4 -10 6 0 11 5 11 10 0 6 -2 10 -4 10 -3 0
-8 -4 -11 -10z"/>
<path d="M1535 1758 c-2 -7 -6 -29 -8 -48 -3 -19 -8 -52 -11 -72 -3 -21 -4
-38 -2 -38 6 0 41 114 38 124 -1 4 2 14 8 20 10 13 4 26 -12 26 -5 0 -10 -6
-13 -12z"/>
<path d="M1427 1734 c-3 -6 -10 -28 -16 -50 -5 -21 -28 -108 -51 -192 -23 -85
-39 -156 -36 -159 13 -14 35 23 51 85 10 37 31 112 46 167 21 73 27 108 21
130 -5 16 -11 24 -15 19z"/>
<path d="M4410 1734 c0 -12 45 -61 97 -105 61 -53 161 -85 310 -100 152 -16
261 -8 320 23 57 30 71 54 21 35 -22 -8 -96 -12 -218 -11 -160 0 -197 3 -269
23 -112 30 -207 80 -248 131 -7 8 -13 10 -13 4z"/>
<path d="M1283 1575 c4 -8 2 -17 -4 -21 -16 -10 21 -31 47 -26 12 2 25 11 29
19 8 23 -2 28 -20 9 -9 -9 -22 -13 -28 -9 -8 5 -7 8 1 11 10 3 10 7 1 18 -15
18 -33 18 -26 -1z"/>
<path d="M1487 1562 c-7 -16 -20 -50 -28 -75 -7 -26 -17 -47 -21 -47 -4 0 -8
-11 -8 -25 0 -47 17 -25 49 63 42 113 42 112 31 112 -5 0 -15 -13 -23 -28z"/>
<path d="M2479 882 c6 -12 31 -31 54 -42 46 -23 46 -22 -37 41 l-29 23 12 -22z"/>
<path d="M2670 789 c0 -5 5 -7 10 -4 6 3 10 8 10 11 0 2 -4 4 -10 4 -5 0 -10
-5 -10 -11z"/>
<path d="M2595 780 c-3 -5 3 -10 14 -10 11 0 23 5 26 10 3 6 -3 10 -14 10 -11
0 -23 -4 -26 -10z"/>
<path d="M2295 690 c-4 -6 3 -10 14 -10 25 0 27 6 6 13 -8 4 -17 2 -20 -3z"/>
<path d="M2781 349 c-29 -10 -59 -24 -67 -30 -7 -6 -17 -8 -23 -5 -11 7 -45
-37 -60 -77 -7 -19 -6 -37 4 -64 l14 -38 0 42 c1 40 28 103 44 103 5 0 6 -4 3
-9 -15 -24 66 16 110 55 55 48 52 51 -25 23z"/>
</g>
</svg>
