<?xml version="1.0" standalone="no"?>
<!DOCTYPE svg PUBLIC "-//W3C//DTD SVG 20010904//EN"
 "http://www.w3.org/TR/2001/REC-SVG-20010904/DTD/svg10.dtd">
<svg version="1.0" xmlns="http://www.w3.org/2000/svg"
 width="600.000000pt" height="600.000000pt" viewBox="0 0 600.000000 600.000000"
 preserveAspectRatio="xMidYMid meet">

<g transform="translate(0.000000,600.000000) scale(0.100000,-0.100000)"
fill="#000000" stroke="none">
<path d="M2163 5988 c2 -7 28 -84 57 -172 29 -87 62 -169 74 -182 25 -29 70
-33 111 -12 31 17 388 128 408 128 7 0 21 -28 32 -63 16 -50 24 -61 39 -59 14
3 857 254 1191 355 45 14 -39 15 -934 16 -783 1 -982 -2 -978 -11z"/>
<path d="M4265 5970 c-49 -15 -207 -63 -350 -105 -143 -42 -357 -105 -475
-141 -118 -36 -276 -83 -350 -105 -74 -22 -169 -50 -210 -64 -41 -13 -114 -35
-162 -50 -49 -14 -88 -30 -88 -35 0 -6 9 -6 23 -1 54 22 233 75 247 74 8 -1
17 2 20 6 3 5 28 14 55 20 28 6 55 13 60 14 35 10 63 19 80 27 11 5 64 20 117
35 54 15 121 35 150 46 29 10 61 19 70 19 15 0 87 21 307 91 35 11 73 22 85
25 11 2 30 8 41 13 11 5 58 19 105 31 47 13 121 34 165 48 44 14 89 25 99 24
10 0 32 6 47 14 16 8 52 21 81 28 l53 15 -40 0 c-22 0 -80 -13 -130 -29z"/>
<path d="M4633 5983 c-59 -18 -67 -29 -51 -75 20 -61 26 -62 122 -33 48 15 89
32 92 40 3 7 1 28 -3 46 -9 33 -11 34 -59 36 -27 0 -72 -6 -101 -14z"/>
<path d="M4821 5968 c14 -51 21 -53 111 -28 148 41 146 60 -6 60 l-115 0 10
-32z"/>
<path d="M5078 5993 c6 -2 18 -2 25 0 6 3 1 5 -13 5 -14 0 -19 -2 -12 -5z"/>
<path d="M5235 5990 c-3 -5 6 -48 20 -95 30 -98 28 -97 140 -62 81 26 86 37
60 117 l-17 50 -98 0 c-54 0 -102 -4 -105 -10z"/>
<path d="M5473 5986 c3 -7 11 -32 18 -55 7 -23 17 -45 23 -50 12 -10 160 29
178 47 7 7 7 20 1 39 l-10 28 -108 3 c-90 2 -107 0 -102 -12z"/>
<path d="M5720 5981 c0 -43 24 -45 133 -13 l102 31 -117 0 c-109 1 -118 0
-118 -18z"/>
<path d="M5086 5959 c-89 -29 -88 -27 -59 -122 14 -45 29 -86 33 -91 10 -10
175 39 185 54 3 6 -5 48 -20 95 -30 98 -32 99 -139 64z"/>
<path d="M5923 5959 c-35 -11 -63 -25 -63 -30 0 -6 12 -49 26 -96 l26 -85 36
7 c20 4 40 9 44 11 9 6 10 214 0 213 -4 0 -35 -9 -69 -20z"/>
<path d="M4436 5925 c-43 -13 -83 -28 -88 -33 -12 -12 -3 -71 15 -96 12 -17
18 -16 104 10 51 15 94 33 97 40 9 23 -25 105 -43 103 -3 0 -41 -11 -85 -24z"/>
<path d="M4935 5915 c-5 -2 -43 -14 -82 -25 -53 -16 -73 -27 -73 -38 0 -10 11
-51 23 -92 19 -59 28 -76 44 -78 31 -5 164 38 170 55 3 8 -5 51 -19 96 -23 77
-35 93 -63 82z"/>
<path d="M5708 5898 c-54 -17 -68 -25 -68 -41 0 -25 39 -159 50 -170 10 -11
180 41 186 56 2 7 -6 48 -19 92 -22 76 -24 80 -52 82 -17 1 -60 -8 -97 -19z
m122 -30 c0 -5 -4 -7 -9 -4 -5 4 -11 1 -13 -6 -3 -7 -7 -3 -10 8 -4 17 -2 20
13 17 11 -3 19 -10 19 -15z"/>
<path d="M4196 5855 c-43 -13 -83 -28 -88 -33 -11 -11 9 -87 27 -102 8 -6 41
0 101 18 l89 28 -2 37 c-3 44 -19 77 -36 76 -7 0 -47 -11 -91 -24z"/>
<path d="M5498 5836 c-37 -11 -72 -26 -78 -32 -17 -17 36 -184 58 -184 26 0
154 38 166 50 7 7 4 33 -9 82 -30 122 -27 120 -137 84z m83 -39 c-10 -9 -11
-8 -5 6 3 10 9 15 12 12 3 -3 0 -11 -7 -18z"/>
<path d="M4631 5826 c-41 -13 -77 -28 -79 -34 -5 -15 38 -155 53 -171 11 -11
25 -10 91 9 44 13 85 28 92 35 10 9 7 28 -15 96 -33 98 -33 99 -142 65z"/>
<path d="M3955 5783 c-44 -14 -83 -30 -86 -35 -9 -14 14 -88 30 -97 11 -7 155
28 182 45 13 8 4 81 -13 101 -14 17 -18 16 -113 -14z"/>
<path d="M5265 5769 c-33 -11 -64 -24 -69 -29 -11 -11 20 -151 39 -177 10 -13
20 -13 91 7 112 31 111 30 80 134 -31 99 -32 100 -141 65z m60 -89 c-3 -5 -12
-10 -18 -10 -7 0 -6 4 3 10 19 12 23 12 15 0z"/>
<path d="M4400 5758 c-36 -11 -68 -23 -73 -27 -8 -8 36 -168 50 -182 9 -9 170
34 186 50 5 5 -2 45 -17 95 -31 99 -31 99 -146 64z"/>
<path d="M3726 5715 c-43 -13 -83 -28 -88 -33 -14 -14 -2 -77 18 -96 13 -13
20 -13 62 0 26 8 66 19 89 25 23 6 44 17 47 24 7 20 -20 100 -35 102 -8 1 -49
-9 -93 -22z"/>
<path d="M5877 5705 c-60 -18 -111 -36 -115 -39 -6 -7 25 -139 40 -168 11 -23
26 -23 120 4 l78 23 0 107 c0 60 -3 108 -7 107 -5 0 -57 -16 -116 -34z"/>
<path d="M5046 5705 c-44 -14 -82 -27 -85 -30 -6 -7 25 -129 43 -165 13 -28
20 -28 119 1 37 11 71 27 74 35 9 23 -41 179 -58 181 -8 1 -50 -9 -93 -22z"/>
<path d="M4255 5715 c-5 -2 -43 -13 -82 -25 -61 -17 -73 -24 -73 -42 0 -38 41
-159 56 -165 20 -8 175 38 181 54 6 15 -34 152 -49 171 -11 12 -15 13 -33 7z"/>
<path d="M3486 5644 c-44 -13 -84 -28 -89 -33 -13 -13 10 -98 28 -105 19 -7
186 46 192 61 8 19 -22 98 -38 100 -8 0 -50 -10 -93 -23z"/>
<path d="M4808 5634 c-43 -14 -78 -28 -78 -32 0 -28 50 -168 63 -176 17 -11
160 29 177 49 6 7 0 41 -18 96 -32 99 -32 99 -144 63z"/>
<path d="M3948 5624 c-53 -17 -78 -30 -78 -40 0 -32 44 -166 56 -171 13 -5
103 18 157 39 33 13 33 22 4 118 -27 89 -29 89 -139 54z"/>
<path d="M5612 5625 c-41 -13 -76 -26 -79 -28 -7 -8 45 -175 57 -182 6 -3 48
5 95 20 98 30 97 26 63 141 -25 86 -24 86 -136 49z"/>
<path d="M1615 5586 c-11 -7 -36 -22 -55 -33 -114 -62 -260 -146 -260 -150 0
-2 12 -21 26 -41 15 -20 23 -28 19 -17 -4 11 -9 29 -12 40 -3 17 -2 18 8 4 10
-14 17 -13 60 10 37 20 47 30 43 44 -3 9 -1 17 5 17 5 0 15 -8 20 -17 6 -10
11 -13 11 -8 0 6 16 19 35 29 26 14 34 24 29 38 -7 22 11 24 20 2 5 -14 10
-13 41 6 20 12 42 19 50 16 13 -5 13 -1 -1 25 -10 20 -11 28 -4 24 8 -5 11 -3
8 5 -6 20 -21 22 -43 6z"/>
<path d="M3243 5572 c-45 -15 -85 -30 -88 -34 -9 -9 15 -86 31 -99 18 -14 183
36 191 58 9 23 -19 97 -37 100 -8 0 -52 -11 -97 -25z"/>
<path d="M4578 5568 c-58 -18 -68 -24 -68 -43 0 -27 38 -156 50 -169 10 -10
159 31 179 49 11 11 9 26 -11 96 -24 79 -27 84 -54 86 -16 1 -59 -8 -96 -19z"/>
<path d="M5393 5563 c-54 -17 -83 -31 -83 -40 0 -32 45 -165 57 -170 17 -7
147 25 169 42 17 12 17 17 -5 91 -22 76 -36 105 -50 103 -3 0 -43 -12 -88 -26z
m92 -23 c-3 -5 -11 -10 -16 -10 -6 0 -7 5 -4 10 3 6 11 10 16 10 6 0 7 -4 4
-10z"/>
<path d="M3720 5556 c-49 -14 -76 -27 -78 -38 -3 -17 32 -143 47 -166 7 -11
23 -9 89 9 114 31 110 25 88 111 -31 122 -26 120 -146 84z"/>
<path d="M3015 5503 c-103 -32 -106 -35 -93 -81 18 -66 25 -68 125 -37 48 15
91 32 94 37 13 20 -21 110 -40 107 -3 0 -42 -12 -86 -26z"/>
<path d="M4363 5503 c-70 -22 -83 -30 -83 -48 0 -28 39 -147 54 -161 8 -9 31
-6 91 12 43 13 84 29 89 34 11 11 -27 154 -46 177 -13 16 -7 17 -105 -14z"/>
<path d="M3506 5494 c-44 -13 -84 -28 -90 -34 -12 -12 27 -157 48 -178 11 -11
28 -9 100 13 71 23 86 31 86 48 0 32 -39 154 -53 164 -8 7 -39 2 -91 -13z"/>
<path d="M5158 5494 c-43 -14 -78 -28 -78 -32 0 -27 49 -168 61 -175 9 -6 43
0 94 15 95 29 98 36 63 143 -27 83 -30 84 -140 49z"/>
<path d="M5858 5457 c-75 -23 -140 -45 -143 -49 -9 -8 33 -159 49 -176 9 -10
34 -6 124 19 l112 31 0 109 c0 60 -1 109 -2 108 -2 0 -65 -20 -140 -42z"/>
<path d="M4133 5436 c-40 -12 -75 -25 -79 -29 -11 -10 38 -178 53 -184 8 -3
51 5 96 19 97 29 98 31 65 138 -28 88 -29 88 -135 56z"/>
<path d="M2756 5424 l-78 -26 6 -41 c11 -70 22 -74 116 -46 113 32 116 35 98
90 -18 55 -35 58 -142 23z"/>
<path d="M3275 5423 c-44 -13 -84 -29 -89 -33 -10 -10 30 -158 48 -177 9 -10
28 -7 89 12 43 13 85 29 92 35 10 8 8 27 -14 97 -15 48 -31 88 -36 89 -6 1
-46 -9 -90 -23z"/>
<path d="M4932 5428 c-35 -11 -66 -27 -69 -35 -8 -20 37 -171 52 -177 18 -6
175 43 180 57 3 7 -6 48 -19 92 -22 75 -25 80 -52 82 -16 1 -57 -8 -92 -19z
m45 -100 c-3 -8 -6 -5 -6 6 -1 11 2 17 5 13 3 -3 4 -12 1 -19z"/>
<path d="M5630 5390 c-14 -5 -51 -16 -82 -25 -46 -13 -58 -21 -58 -37 0 -36
42 -159 57 -165 19 -7 174 37 179 51 6 16 -49 179 -61 182 -5 1 -21 -2 -35 -6z
m-3 -152 c-3 -8 -6 -5 -6 6 -1 11 2 17 5 13 3 -3 4 -12 1 -19z"/>
<path d="M3905 5368 c-38 -11 -74 -24 -79 -28 -11 -11 31 -165 50 -181 16 -13
179 34 186 53 3 7 -7 49 -21 93 -30 93 -32 94 -136 63z"/>
<path d="M4713 5363 c-50 -16 -83 -32 -83 -40 0 -31 46 -166 58 -170 20 -8
173 39 179 54 9 22 -41 178 -58 180 -8 1 -51 -10 -96 -24z"/>
<path d="M3045 5354 c-43 -13 -83 -28 -89 -34 -11 -11 31 -155 51 -176 10 -10
29 -8 95 13 46 14 86 30 90 36 10 16 -41 179 -57 183 -5 1 -46 -8 -90 -22z"/>
<path d="M1737 5318 c-22 -11 -37 -22 -34 -25 3 -3 16 2 28 10 15 11 28 13 45
7 26 -10 32 1 12 18 -9 7 -24 4 -51 -10z"/>
<path d="M5338 5303 c-43 -13 -78 -29 -78 -36 0 -29 52 -177 62 -177 32 0 170
44 175 56 5 14 -23 134 -39 167 -11 22 -25 21 -120 -10z m107 -35 c5 -4 0 -6
-13 -5 -22 1 -27 8 -15 20 3 4 9 4 12 0 3 -4 10 -11 16 -15z"/>
<path d="M3666 5296 c-38 -12 -71 -27 -73 -33 -6 -16 37 -155 52 -171 10 -11
27 -9 98 13 47 14 87 31 90 38 2 6 -3 32 -10 57 -7 25 -18 62 -24 83 -12 45
-28 46 -133 13z"/>
<path d="M4478 5293 c-43 -13 -78 -29 -78 -34 0 -24 43 -155 56 -168 11 -12
24 -11 91 9 43 12 83 27 89 34 9 8 6 30 -11 89 -13 42 -27 82 -30 87 -9 14
-30 11 -117 -17z"/>
<path d="M1625 5243 c20 -38 39 -70 41 -72 1 -2 15 6 30 18 l27 21 -31 -6
c-29 -6 -32 -3 -62 50 -18 31 -34 56 -37 56 -3 0 12 -30 32 -67z"/>
<path d="M1676 5265 c14 -25 28 -45 30 -45 7 0 -35 78 -45 85 -6 3 2 -15 15
-40z"/>
<path d="M2811 5285 c-41 -14 -79 -29 -84 -34 -10 -10 36 -175 52 -185 14 -9
179 45 185 60 8 21 -47 179 -64 181 -8 1 -48 -9 -89 -22z"/>
<path d="M1379 5263 c12 -23 26 -45 32 -48 13 -8 -12 41 -36 70 -11 14 -10 7
4 -22z"/>
<path d="M1750 5271 c-8 -6 -18 -7 -22 -5 -4 3 -8 1 -8 -5 0 -13 53 -7 58 8 4
13 -8 14 -28 2z"/>
<path d="M3456 5235 c-43 -13 -83 -28 -88 -33 -11 -11 35 -177 52 -187 15 -9
177 44 183 60 7 17 -45 178 -58 181 -5 1 -45 -8 -89 -21z"/>
<path d="M5108 5237 c-37 -11 -69 -25 -71 -31 -6 -17 44 -174 57 -179 14 -5
165 38 178 51 6 6 1 40 -16 96 -31 99 -30 99 -148 63z m122 -31 c0 -2 -9 -2
-20 1 -11 3 -20 9 -20 15 0 5 9 4 20 -2 11 -6 20 -12 20 -14z"/>
<path d="M4255 5228 c-38 -11 -74 -23 -78 -28 -11 -10 40 -180 56 -186 7 -2
51 8 97 23 97 32 95 26 59 146 -23 77 -23 77 -134 45z m32 -100 c-3 -8 -6 -5
-6 6 -1 11 2 17 5 13 3 -3 4 -12 1 -19z"/>
<path d="M5905 5229 c-33 -11 -63 -23 -68 -28 -10 -10 40 -190 57 -209 10 -10
21 -9 58 4 l47 16 0 119 c1 136 6 130 -94 98z m60 -129 c-11 -5 -27 -9 -35 -9
-9 0 -8 4 5 9 11 5 27 9 35 9 9 0 8 -4 -5 -9z"/>
<path d="M1568 5225 c-3 -4 0 -14 8 -23 8 -9 24 -28 35 -42 l20 -25 -15 30
c-21 43 -40 67 -48 60z"/>
<path d="M1484 5194 c-18 -14 -18 -15 4 -4 12 6 22 13 22 15 0 8 -5 6 -26 -11z"/>
<path d="M1552 5191 c-11 -6 -9 -9 6 -13 15 -4 19 -2 15 8 -6 16 -4 16 -21 5z"/>
<path d="M4950 5190 c-14 -5 -51 -16 -82 -25 -67 -19 -67 -19 -35 -125 16 -51
28 -76 40 -78 26 -5 168 39 174 54 2 7 -6 50 -19 96 -25 86 -32 94 -78 78z
m42 -54 c7 4 8 2 4 -4 -11 -18 -26 -14 -25 6 0 10 3 12 6 4 2 -6 10 -9 15 -6z
m-62 -51 c11 -13 10 -14 -4 -9 -9 3 -16 10 -16 15 0 13 6 11 20 -6z"/>
<path d="M3225 5164 c-43 -13 -83 -28 -88 -33 -11 -11 40 -178 56 -183 20 -8
175 43 181 59 7 18 -45 176 -59 179 -5 2 -46 -8 -90 -22z m52 -106 c-3 -8 -6
-5 -6 6 -1 11 2 17 5 13 3 -3 4 -12 1 -19z"/>
<path d="M4033 5162 c-45 -14 -84 -30 -86 -36 -6 -18 44 -174 58 -180 18 -7
175 43 181 58 7 18 -44 173 -59 178 -6 2 -49 -7 -94 -20z m90 -25 c3 -8 0 -14
-7 -14 -7 0 -13 6 -13 14 0 7 4 13 8 13 4 0 9 -6 12 -13z"/>
<path d="M1483 5173 c-20 -8 -16 -52 4 -49 9 2 19 8 21 15 2 6 0 11 -5 10 -20
-3 -25 2 -13 16 13 16 13 16 -7 8z"/>
<path d="M1700 5170 c0 -5 5 -10 10 -10 6 0 10 5 10 10 0 6 -4 10 -10 10 -5 0
-10 -4 -10 -10z"/>
<path d="M1825 5170 c-4 -6 -16 -8 -27 -4 -18 5 -19 4 -7 -9 10 -11 19 -12 36
-4 13 6 23 14 23 19 0 11 -18 10 -25 -2z"/>
<path d="M1713 5138 c2 -14 17 -28 30 -28 14 0 7 28 -9 34 -22 8 -24 8 -21 -6z"/>
<path d="M4668 5107 c-37 -12 -72 -27 -77 -32 -13 -13 23 -152 44 -174 12 -12
26 -11 97 10 98 30 101 36 66 144 -27 82 -31 84 -130 52z"/>
<path d="M780 5110 c0 -5 5 -10 11 -10 5 0 7 5 4 10 -3 6 -8 10 -11 10 -2 0
-4 -4 -4 -10z"/>
<path d="M2931 5076 c-74 -23 -136 -47 -139 -54 -6 -19 47 -182 59 -182 27 0
292 86 296 96 2 7 -8 51 -23 98 -19 63 -31 86 -43 85 -9 -1 -76 -20 -150 -43z"/>
<path d="M3803 5093 c-68 -21 -83 -30 -83 -46 0 -37 41 -158 56 -164 20 -7
175 38 181 53 5 14 -35 154 -49 172 -13 15 -5 16 -105 -15z m57 -109 c0 -8
-19 -13 -24 -6 -3 5 1 9 9 9 8 0 15 -2 15 -3z"/>
<path d="M5460 5098 c-36 -11 -69 -23 -73 -27 -9 -9 41 -190 58 -209 16 -18
178 27 183 51 2 9 -9 59 -24 112 -31 110 -29 109 -144 73z m65 -178 c3 -6 -4
-10 -17 -10 -18 0 -20 2 -8 10 19 12 18 12 25 0z"/>
<path d="M1667 5103 c-7 -6 21 -32 36 -33 14 0 7 28 -9 34 -19 7 -19 7 -27 -1z"/>
<path d="M5726 5055 c-44 -14 -81 -27 -83 -29 -7 -7 8 -74 21 -92 12 -16 17
-16 85 1 39 9 81 25 92 34 18 15 18 19 6 61 -7 25 -19 46 -27 47 -8 1 -51 -9
-94 -22z"/>
<path d="M1630 5060 c-9 -6 -10 -10 -3 -10 6 0 15 5 18 10 8 12 4 12 -15 0z"/>
<path d="M80 5049 c0 -5 5 -7 10 -4 6 3 10 8 10 11 0 2 -4 4 -10 4 -5 0 -10
-5 -10 -11z"/>
<path d="M1186 5014 c-177 -161 -423 -353 -604 -471 -273 -178 -344 -217 -374
-209 -20 5 -20 4 0 -15 12 -10 27 -19 34 -19 7 0 22 -7 32 -15 14 -11 23 -12
33 -4 7 6 13 8 13 4 0 -4 11 0 25 9 13 9 32 16 41 16 10 0 14 5 11 14 -4 10
-1 13 8 9 8 -3 18 2 21 11 3 9 11 16 18 17 6 0 31 16 56 35 25 18 56 39 70 45
14 6 35 20 48 31 12 12 22 16 22 10 0 -19 14 -14 48 16 19 18 32 38 32 53 0
18 9 28 38 41 38 18 82 51 82 63 0 3 -5 3 -12 -1 -7 -4 -8 -3 -4 4 4 6 14 8
23 5 13 -5 15 -2 10 11 -6 14 -3 17 9 12 18 -7 63 34 65 60 3 34 6 39 17 37 7
-2 11 0 9 5 -1 5 246 233 282 259 2 2 2 5 0 7 -2 2 -26 -16 -53 -40z"/>
<path d="M4428 5036 c-37 -11 -70 -26 -72 -32 -5 -14 39 -163 53 -177 10 -10
176 37 186 53 3 5 -6 48 -20 95 -30 99 -30 99 -147 61z m106 -30 c-3 -9 -10
-13 -15 -10 -5 3 -3 11 4 19 15 16 19 13 11 -9z m-48 -60 c0 -13 -4 -22 -8
-20 -9 6 -6 44 3 44 4 0 6 -11 5 -24z"/>
<path d="M5265 5040 c-33 -10 -78 -23 -100 -29 -72 -20 -71 -17 -39 -131 15
-56 34 -105 42 -107 19 -8 224 54 234 69 4 7 6 20 3 28 -32 117 -58 190 -68
189 -7 0 -39 -9 -72 -19z"/>
<path d="M3568 5024 c-72 -23 -78 -27 -77 -52 1 -48 43 -157 61 -160 17 -3
143 32 168 48 12 7 10 21 -11 97 -30 103 -29 103 -141 67z m61 -108 c-3 -3
-11 5 -18 17 -13 21 -12 21 5 5 10 -10 16 -20 13 -22z"/>
<path d="M869 5017 c14 -15 29 -27 35 -27 6 0 5 4 -3 9 -8 5 -10 14 -6 21 5 9
4 11 -4 6 -6 -4 -20 -2 -29 5 -9 8 -6 1 7 -14z"/>
<path d="M1570 5020 c0 -5 5 -10 10 -10 6 0 10 5 10 10 0 6 -4 10 -10 10 -5 0
-10 -4 -10 -10z"/>
<path d="M830 4989 c0 -5 5 -7 10 -4 6 3 10 8 10 11 0 2 -4 4 -10 4 -5 0 -10
-5 -10 -11z"/>
<path d="M4218 4973 c-72 -21 -88 -29 -88 -45 0 -35 42 -167 55 -172 15 -5
164 39 178 53 10 10 -29 159 -47 177 -8 9 -33 5 -98 -13z m82 -23 c0 8 2 11 5
8 3 -3 3 -13 -1 -22 -5 -13 -9 -14 -20 -5 -8 6 -14 16 -14 21 0 6 7 5 15 -2
12 -10 15 -10 15 0z m-49 -77 c13 -16 12 -17 -3 -4 -10 7 -18 15 -18 17 0 8 8
3 21 -13z"/>
<path d="M810 4960 c6 -11 12 -20 14 -20 2 0 2 9 -1 20 -3 11 -9 20 -15 20 -5
0 -4 -9 2 -20z"/>
<path d="M3338 4954 c-51 -16 -78 -30 -78 -40 0 -30 45 -167 57 -171 6 -3 50
7 97 22 65 19 86 30 86 43 0 9 -10 51 -23 92 -27 89 -28 89 -139 54z m96 -12
c2 -4 0 -14 -6 -22 -8 -12 -9 -12 -5 2 3 9 1 19 -6 22 -9 3 -9 5 0 5 6 1 14
-3 17 -7z m-49 -62 c3 -5 1 -10 -4 -10 -6 0 -11 5 -11 10 0 6 2 10 4 10 3 0 8
-4 11 -10z"/>
<path d="M4890 4930 c-153 -47 -666 -201 -812 -244 -59 -17 -109 -35 -112 -41
-5 -13 50 -195 62 -207 9 -9 183 40 887 249 66 20 137 40 158 46 57 15 60 30
26 140 -37 116 -26 113 -209 57z"/>
<path d="M936 4934 c-5 -14 -4 -15 9 -4 17 14 19 20 6 20 -5 0 -12 -7 -15 -16z"/>
<path d="M838 4919 c6 -9 9 -19 5 -22 -3 -4 4 -7 17 -7 13 0 21 1 19 3 -2 1
-15 11 -29 22 -15 12 -20 14 -12 4z"/>
<path d="M3986 4905 c-44 -14 -82 -27 -84 -30 -9 -9 31 -156 48 -176 14 -17
18 -16 94 6 43 13 83 28 89 34 15 15 -33 185 -53 188 -8 1 -51 -9 -94 -22z
m92 -40 c13 5 14 3 5 -6 -14 -14 -33 -3 -32 19 1 15 2 14 6 -1 3 -12 10 -16
21 -12z"/>
<path d="M811 4887 c-13 -21 -12 -21 5 -5 10 10 16 20 13 22 -3 3 -11 -5 -18
-17z"/>
<path d="M3027 4861 c-87 -27 -161 -52 -164 -55 -9 -8 27 -152 43 -174 14 -19
26 -17 237 49 146 46 142 40 104 155 -18 51 -29 70 -43 71 -10 1 -90 -20 -177
-46z m-117 -75 c0 -3 -4 -8 -10 -11 -5 -3 -10 -1 -10 4 0 6 5 11 10 11 6 0 10
-2 10 -4z"/>
<path d="M3825 4855 c-5 -2 -43 -13 -82 -25 -54 -15 -73 -25 -73 -38 1 -36 47
-167 61 -170 8 -1 50 8 94 21 94 28 95 30 62 137 -21 70 -34 85 -62 75z m29
-40 c4 -10 -1 -15 -14 -15 -11 0 -20 5 -20 11 0 5 5 7 10 4 6 -3 10 -1 10 4 0
16 7 13 14 -4z m-50 -71 c3 -8 2 -12 -4 -9 -6 3 -10 10 -10 16 0 14 7 11 14
-7z"/>
<path d="M460 4820 c-9 -6 -10 -10 -3 -10 6 0 15 5 18 10 8 12 4 12 -15 0z"/>
<path d="M250 4795 c0 -3 7 -13 14 -22 8 -10 24 -29 35 -43 16 -21 22 -23 33
-12 11 11 10 12 -3 7 -11 -4 -24 6 -43 35 -24 36 -36 48 -36 35z"/>
<path d="M399 4773 c-13 -16 -12 -17 4 -4 9 7 17 15 17 17 0 8 -8 3 -21 -13z"/>
<path d="M3518 4764 c-57 -18 -78 -30 -78 -42 0 -31 51 -172 63 -172 6 0 48
11 94 25 96 30 95 28 60 140 -27 83 -29 84 -139 49z m90 -39 c-3 -3 -9 2 -12
12 -6 14 -5 15 5 6 7 -7 10 -15 7 -18z m-38 -35 c0 -5 -2 -10 -4 -10 -3 0 -8
5 -11 10 -3 6 -1 10 4 10 6 0 11 -4 11 -10z"/>
<path d="M558 4723 c6 -2 18 -2 25 0 6 3 1 5 -13 5 -14 0 -19 -2 -12 -5z"/>
<path d="M206 4707 c3 -10 9 -15 12 -12 3 3 0 11 -7 18 -10 9 -11 8 -5 -6z"/>
<path d="M440 4713 c0 -6 7 -16 15 -23 13 -11 13 -15 3 -21 -9 -6 -7 -9 9 -9
12 0 24 -6 26 -12 3 -7 6 -8 6 -3 0 6 -13 26 -29 45 -17 19 -30 29 -30 23z"/>
<path d="M3148 4653 c-119 -36 -219 -71 -221 -77 -5 -13 39 -166 52 -179 5 -5
96 18 212 53 112 35 215 66 229 69 34 10 36 40 8 126 -18 54 -28 70 -43 72
-11 1 -118 -28 -237 -64z"/>
<path d="M410 4690 c-9 -6 -10 -10 -3 -10 6 0 15 5 18 10 8 12 4 12 -15 0z"/>
<path d="M1543 4685 c-243 -53 -443 -266 -466 -497 -2 -27 -1 -48 4 -48 5 0 9
12 9 28 0 20 3 23 9 12 6 -8 8 -26 5 -40 -2 -14 2 -43 10 -65 12 -32 16 -37
22 -22 9 25 23 3 24 -38 1 -16 12 -52 26 -80 13 -27 22 -41 18 -30 -3 11 -7
34 -10 50 -3 23 -1 21 9 -10 23 -69 58 -129 96 -164 20 -19 29 -31 21 -26 -10
5 -8 1 4 -13 10 -12 23 -19 29 -15 5 3 7 2 4 -4 -8 -13 26 -43 88 -79 42 -24
47 -25 32 -7 -18 20 -15 20 45 -4 52 -22 85 -27 192 -32 118 -6 133 -4 184 16
79 32 154 93 205 165 43 61 97 179 97 212 0 9 4 16 10 16 5 0 6 7 3 17 -4 9
-2 14 3 10 6 -4 9 28 8 86 -2 51 0 82 2 70 3 -13 10 -23 15 -23 13 0 12 9 -12
86 -23 75 -54 141 -94 201 -26 39 -154 162 -168 163 -4 0 -20 9 -35 20 -65 48
-266 71 -389 45z"/>
<path d="M375 4661 c8 -17 19 -33 25 -36 5 -3 1 10 -11 29 -25 43 -36 48 -14
7z"/>
<path d="M515 4680 c-16 -7 -17 -9 -3 -9 9 -1 20 4 23 9 7 11 7 11 -20 0z"/>
<path d="M340 4656 c0 -2 7 -7 16 -10 8 -3 12 -2 9 4 -6 10 -25 14 -25 6z"/>
<path d="M194 4628 c-3 -4 1 -5 9 -2 8 3 25 -5 37 -18 15 -15 21 -17 17 -7 -3
9 -1 21 5 27 7 7 -2 10 -27 9 -20 -1 -38 -5 -41 -9z"/>
<path d="M280 4629 c0 -5 9 -9 20 -9 11 0 20 2 20 4 0 2 -9 6 -20 9 -11 3 -20
1 -20 -4z"/>
<path d="M3880 4630 c-14 -5 -64 -21 -112 -36 -66 -20 -88 -31 -88 -43 0 -29
50 -185 63 -198 10 -11 33 -7 117 18 58 17 111 37 118 44 11 10 9 28 -14 106
-27 91 -40 120 -53 118 -3 0 -17 -4 -31 -9z m26 -58 c0 -10 -6 -19 -13 -19 -8
0 -9 6 -2 19 5 10 11 18 12 18 2 0 3 -8 3 -18z"/>
<path d="M424 4565 c-9 -35 -1 -39 21 -15 17 18 17 20 2 14 -13 -5 -16 -2 -11
10 3 9 3 16 0 16 -3 0 -8 -11 -12 -25z"/>
<path d="M3528 4523 c-54 -17 -78 -30 -78 -41 0 -27 51 -186 63 -198 19 -19
181 36 185 61 1 11 -11 61 -26 110 -33 105 -32 105 -144 68z"/>
<path d="M366 4531 c-3 -5 0 -11 7 -14 8 -3 14 1 14 9 0 16 -13 19 -21 5z"/>
<path d="M2160 4470 c6 -11 13 -20 16 -20 2 0 0 9 -6 20 -6 11 -13 20 -16 20
-2 0 0 -9 6 -20z"/>
<path d="M3298 4454 c-43 -14 -78 -31 -78 -37 0 -7 14 -56 30 -110 35 -112 32
-110 145 -74 53 17 71 28 73 42 1 11 -10 61 -26 110 -32 105 -31 105 -144 69z"/>
<path d="M3080 4389 c-98 -31 -97 -29 -60 -148 36 -116 31 -114 145 -78 65 21
70 25 72 52 1 17 -10 66 -25 110 -31 93 -35 94 -132 64z"/>
<path d="M2235 4333 c4 -10 15 -49 25 -88 11 -38 19 -58 19 -44 1 26 -37 149
-46 149 -3 0 -2 -8 2 -17z"/>
<path d="M4460 4191 c-50 -16 -87 -41 -124 -81 -35 -39 -37 -45 -33 -92 3 -28
11 -56 18 -62 9 -8 11 -7 6 7 -4 11 -1 17 9 17 8 0 12 -4 9 -10 -3 -5 2 -10
13 -10 21 0 127 18 156 27 12 3 17 1 14 -8 -3 -9 -47 -22 -114 -36 -60 -12
-101 -22 -91 -22 9 -1 17 -5 17 -10 0 -5 26 -36 58 -69 66 -68 138 -106 223
-116 l54 -6 -39 14 c-73 27 -148 106 -101 106 15 0 16 2 4 17 -12 15 -12 16 4
10 15 -6 17 -3 12 16 -7 21 -7 21 8 2 14 -19 16 -19 55 -1 22 10 45 28 50 40
9 17 11 18 11 4 1 -19 35 -25 45 -9 8 13 -3 38 -19 45 -10 3 -12 0 -9 -12 5
-13 4 -14 -4 -3 -6 9 -17 11 -28 7 -17 -7 -17 -5 1 11 15 14 40 19 102 21 46
2 102 7 125 11 62 13 10 13 -95 1 -97 -11 -117 -7 -93 19 18 19 30 91 19 107
-4 5 -33 23 -63 38 -58 30 -152 43 -200 27z m180 -33 l25 -10 -35 -14 c-19 -8
-43 -22 -53 -31 -17 -16 -17 -16 -11 3 4 10 12 23 18 27 6 4 0 6 -14 5 -14 -2
-24 -9 -22 -16 1 -6 -8 -13 -20 -14 -13 0 -30 -2 -38 -3 -17 -1 -55 33 -46 42
3 3 12 -2 21 -11 9 -9 25 -16 34 -16 22 0 45 25 36 40 -9 14 8 13 24 -2 7 -7
12 -8 11 -3 -6 28 2 29 70 3z m-191 -57 c9 -15 7 -20 -9 -24 -11 -3 -18 -1
-15 3 3 5 1 11 -5 15 -11 7 -4 25 10 25 5 0 14 -9 19 -19z m-64 -11 c3 -6 -1
-7 -9 -4 -9 3 -16 1 -16 -5 0 -6 -5 -11 -11 -11 -8 0 -8 5 1 15 14 17 26 19
35 5z m168 -6 c3 -3 0 -22 -7 -42 -10 -30 -17 -36 -39 -35 -44 2 -47 3 -47 14
0 6 7 9 15 5 22 -8 65 11 65 29 0 9 -4 14 -8 11 -5 -3 -9 1 -9 9 0 15 18 20
30 9z m-163 -64 c0 -5 7 -7 15 -4 8 4 15 1 15 -4 0 -21 -18 -21 -35 -2 -10 12
-13 20 -7 20 7 0 12 -4 12 -10z m250 -78 c0 -5 -12 -14 -27 -21 l-28 -13 20
21 c21 21 35 26 35 13z m-133 -18 c3 -9 0 -20 -7 -24 -7 -4 -9 -13 -5 -20 10
-16 -62 -2 -92 18 -35 22 -28 31 30 35 28 2 56 4 60 5 4 1 10 -5 14 -14z"/>
<path d="M4605 4150 c3 -5 8 -10 11 -10 2 0 4 5 4 10 0 6 -5 10 -11 10 -5 0
-7 -4 -4 -10z"/>
<path d="M2283 4105 c0 -38 2 -53 4 -32 2 20 2 52 0 70 -2 17 -4 1 -4 -38z"/>
<path d="M1072 4055 c0 -16 2 -22 5 -12 2 9 2 23 0 30 -3 6 -5 -1 -5 -18z"/>
<path d="M4967 4069 c7 -7 15 -10 18 -7 3 3 -2 9 -12 12 -14 6 -15 5 -6 -5z"/>
<path d="M4947 4030 c-10 -62 -35 -159 -63 -251 -25 -82 -26 -91 -12 -106 14
-13 23 -14 65 -4 78 19 136 81 127 134 -4 24 -3 28 5 17 8 -12 11 -12 17 4 9
22 -2 131 -16 156 -10 19 -6 20 172 22 114 1 160 4 123 8 -79 8 -286 5 -307
-4 -11 -5 -18 -2 -23 13 -6 20 -8 20 -31 4 -14 -8 -26 -14 -27 -12 -2 2 -8 15
-14 29 -10 25 -10 25 -16 -10z m8 -90 c-4 -12 -9 -19 -12 -17 -3 3 -2 15 2 27
4 12 9 19 12 17 3 -3 2 -15 -2 -27z m82 0 c-3 -11 -1 -20 4 -20 5 0 9 -7 9
-15 0 -9 6 -12 15 -9 12 5 15 -2 15 -27 0 -23 -3 -30 -9 -20 -7 11 -9 11 -14
0 -3 -8 -6 -3 -6 11 -2 35 -15 52 -34 44 -19 -7 -22 8 -7 37 14 25 34 25 27
-1z"/>
<path d="M4242 4007 c-7 -8 -15 -34 -18 -59 -6 -46 -6 -46 -65 -63 -33 -10
-57 -20 -55 -23 3 -2 26 3 52 12 62 21 61 21 68 -19 4 -20 11 -33 17 -29 5 3
7 15 3 26 -3 11 -2 18 3 15 5 -3 15 -2 23 3 12 8 13 13 3 29 -11 18 -10 19 4
14 13 -5 15 -2 10 11 -4 10 -7 28 -7 40 0 12 -6 30 -13 40 -11 15 -15 16 -25
3z"/>
<path d="M5640 3990 c220 -31 280 -36 280 -21 0 4 -48 11 -107 15 -60 3 -137
8 -173 11 l-65 4 65 -9z"/>
<path d="M3852 3960 c-25 -11 -65 -91 -83 -168 -14 -60 -13 -131 2 -168 7 -16
11 -33 10 -37 -2 -13 19 -47 30 -47 37 0 122 141 117 193 -3 29 -6 32 -35 32
-17 0 -29 3 -26 7 2 5 10 8 17 8 15 0 26 51 26 117 0 71 -10 82 -58 63z"/>
<path d="M2253 3898 c-25 -92 -141 -251 -207 -285 -17 -9 -33 -19 -36 -22 -9
-13 -102 -63 -133 -73 -220 -68 -394 -42 -580 85 -58 40 -150 143 -181 205 -9
17 -19 32 -21 32 -8 0 34 -81 57 -110 36 -47 122 -131 155 -151 18 -11 33 -24
33 -29 0 -4 -26 -6 -57 -5 -101 6 -143 -26 -170 -128 -7 -29 -27 -151 -44
-272 -17 -121 -46 -315 -65 -431 -19 -116 -34 -214 -34 -218 0 -4 -13 0 -30 9
-16 8 -37 15 -46 15 -24 0 -610 -336 -652 -373 -45 -41 -33 -74 106 -313 176
-300 380 -643 404 -677 19 -27 19 -34 7 -145 -12 -113 -11 -118 10 -159 27
-54 53 -71 136 -90 39 -9 63 -19 59 -25 -4 -6 2 -5 15 1 11 7 21 8 21 3 0 -8
28 -12 82 -12 15 0 29 -4 32 -9 3 -4 18 -6 33 -4 21 3 24 2 14 -5 -11 -8 1
-10 41 -10 30 0 70 -4 89 -11 19 -6 52 -13 74 -15 52 -5 248 -41 395 -72 14
-2 65 -9 113 -14 49 -6 92 -12 96 -14 14 -9 517 -97 721 -126 255 -37 262 -38
256 -49 -7 -10 82 -23 97 -14 5 3 7 1 4 -4 -4 -6 1 -14 11 -18 23 -10 111 -12
105 -3 -2 5 -14 8 -26 9 -13 0 -16 3 -9 6 15 6 92 -27 92 -39 0 -12 46 -9 74
3 14 7 33 8 43 4 10 -5 24 -7 32 -6 7 1 10 -2 7 -8 -4 -6 6 -8 27 -4 19 3 49
-2 71 -11 21 -9 43 -13 49 -9 5 3 7 1 4 -4 -4 -6 0 -14 9 -17 24 -9 36 -7 28
6 -5 8 -2 9 12 3 10 -4 40 -9 65 -11 26 -2 86 -10 134 -19 48 -8 90 -15 92
-15 2 0 2 -4 -2 -9 -3 -5 3 -12 12 -15 18 -5 287 -51 353 -60 19 -2 67 -11
105 -19 71 -15 625 -95 835 -121 98 -12 117 -12 131 0 8 8 23 14 32 14 25 0
74 47 90 88 12 29 111 447 194 819 6 26 21 29 48 9 11 -8 25 -12 32 -9 7 3 13
0 13 -5 0 -6 9 -14 20 -17 11 -4 34 -18 50 -32 17 -14 33 -23 36 -21 5 5 -77
84 -113 109 -19 13 -24 28 -27 76 l-5 61 45 11 c26 7 44 17 44 26 0 28 23 120
27 108 2 -7 11 -9 19 -6 8 3 14 1 14 -5 0 -5 7 -12 15 -16 12 -4 13 -2 6 13
-14 25 -38 44 -49 37 -8 -5 -1 45 24 161 6 29 3 34 -27 52 -19 12 -38 22 -43
24 -6 2 -2 33 7 73 9 38 17 77 17 87 0 10 10 37 21 60 12 23 20 44 18 46 -2 3
12 9 31 14 43 11 48 16 30 27 -24 15 -5 22 24 9 36 -17 85 3 65 27 -12 14 -14
14 -26 -3 -11 -14 -15 -15 -22 -4 -6 9 -10 10 -16 2 -5 -9 -10 -9 -20 -1 -9 8
-14 6 -19 -5 -5 -14 -8 -13 -24 2 -21 20 -18 43 5 43 13 0 13 3 3 15 -22 27
-20 66 15 245 69 362 75 396 75 451 0 63 -27 115 -71 136 -14 7 -75 22 -134
34 -105 20 -189 46 -153 48 9 1 20 6 23 11 5 7 -9 9 -42 5 -54 -7 -368 38
-400 58 -6 4 -13 30 -16 59 -4 29 -11 54 -17 56 -5 2 -10 8 -10 13 0 6 5 7 12
3 7 -4 8 -3 4 4 -4 7 -14 12 -23 12 -12 0 -14 -6 -8 -27 14 -54 14 -96 0 -109
-15 -15 -35 -19 -35 -6 0 10 -83 7 -102 -3 -7 -5 -10 -4 -5 1 5 5 -54 19 -145
34 -84 14 -152 30 -151 35 1 6 10 15 20 20 10 6 20 12 23 15 3 3 34 18 70 33
133 57 196 96 154 98 -11 0 1 8 26 18 65 27 93 34 87 25 -3 -5 18 -9 47 -9 28
0 53 5 55 10 8 17 29 35 43 35 7 0 22 7 32 15 19 14 19 15 2 15 -15 0 -16 3
-6 15 7 8 17 15 22 15 6 0 82 27 170 60 89 33 163 60 166 60 2 0 -1 -7 -8 -15
-15 -17 -7 -19 21 -5 32 18 21 -4 -12 -23 -17 -9 -36 -14 -41 -10 -7 3 -8 1
-4 -5 4 -7 1 -12 -7 -12 -8 0 -25 -9 -38 -20 -28 -24 -54 -35 404 168 57 25
62 43 9 35 -16 -2 2 10 41 29 l69 33 -6 44 c-3 25 -14 53 -23 63 -15 16 -15
18 0 18 9 0 18 4 21 9 10 15 -102 -14 -377 -99 -209 -64 -266 -78 -300 -74
-34 4 -89 -9 -277 -66 -278 -84 -287 -87 -292 -108 -4 -12 -63 -34 -219 -81
-118 -35 -239 -72 -269 -81 -30 -10 -128 -39 -216 -65 l-162 -47 -188 31
c-104 17 -219 36 -256 42 -64 10 -67 12 -66 38 1 15 -8 56 -20 92 -11 35 -23
76 -26 92 -6 23 -9 26 -25 17 -14 -7 -20 -6 -25 5 -3 8 -17 15 -31 15 -16 0
-24 4 -20 11 4 6 13 8 21 5 7 -3 20 2 29 10 17 18 21 79 4 68 -7 -4 -7 1 1 16
14 27 1 63 -28 79 -52 28 -102 -84 -102 -226 0 -70 20 -120 42 -107 7 5 8 2 4
-5 -9 -14 20 -51 39 -51 7 0 18 -7 25 -15 16 -19 -1 -20 -84 -4 -66 12 -81 5
-48 -21 15 -13 18 -20 10 -23 -10 -4 -10 -6 0 -6 6 -1 12 -6 12 -12 0 -8 -5
-8 -15 1 -8 7 -12 17 -8 24 3 6 0 6 -7 -1 -16 -15 -1 -70 17 -66 6 1 9 -6 6
-16 -2 -9 2 -23 11 -30 12 -10 14 -9 9 10 -4 15 -3 20 5 15 7 -4 12 -13 12
-20 0 -9 52 -22 163 -41 176 -30 207 -39 207 -56 0 -6 -7 -9 -15 -5 -13 4 -13
2 -5 -14 13 -23 13 -40 0 -20 -10 16 -10 17 -27 -57 -9 -36 -8 -43 5 -43 34 0
53 -60 32 -100 -8 -15 -7 -18 3 -14 14 5 48 194 36 194 -4 0 -10 -21 -14 -46
-3 -25 -9 -43 -12 -40 -3 3 0 39 7 80 l13 75 51 -6 c28 -2 269 -38 536 -78
267 -41 519 -78 560 -84 181 -25 657 -102 692 -113 21 -6 43 -17 49 -24 7 -9
0 -58 -25 -171 -19 -87 -56 -264 -81 -393 -25 -129 -48 -241 -50 -248 -3 -9
10 -20 35 -29 22 -9 40 -21 40 -27 0 -6 -12 -62 -26 -125 -27 -119 -25 -130
18 -131 30 0 118 -23 118 -31 0 -4 -26 -1 -57 7 -82 19 -137 17 -184 -7 -62
-31 -96 -123 -70 -191 5 -14 4 -53 -3 -98 -12 -75 -12 -75 11 -76 18 -2 23 3
23 23 0 13 -4 21 -10 18 -5 -3 -10 3 -10 14 0 11 5 23 11 26 6 4 8 14 5 22 -5
11 0 10 24 -3 21 -13 28 -24 25 -38 -2 -12 -9 -48 -15 -81 -28 -156 -27 -154
-73 -157 -32 -2 -43 -8 -45 -22 -3 -11 0 -16 7 -12 18 11 14 -12 -53 -333 -46
-218 -69 -307 -80 -313 -9 -5 -19 -26 -22 -47 -3 -21 -10 -44 -14 -51 -6 -10
-125 4 -577 68 -312 45 -694 95 -848 112 -359 39 -345 37 -345 60 0 11 -9 24
-20 30 -16 9 -18 8 -14 -5 5 -11 -1 -15 -25 -15 -17 0 -40 -5 -50 -12 -15 -9
-26 -9 -45 0 -29 13 -26 42 4 42 10 0 23 7 31 16 7 8 20 13 30 11 11 -3 16 1
14 12 -2 9 -4 22 -4 29 -2 21 -20 13 -27 -12 -13 -53 -34 -52 -395 14 -184 34
-422 77 -529 96 -543 97 -809 144 -848 150 -24 4 -46 13 -49 19 -4 12 15 152
97 700 33 218 34 228 22 221 -4 -2 -13 -2 -19 2 -8 5 -3 63 18 202 16 107 29
196 29 198 0 1 -11 0 -25 -4 -22 -5 -25 -3 -25 20 0 14 13 40 29 58 15 18 33
47 38 63 8 22 16 29 32 28 15 -2 21 3 21 17 0 23 -37 60 -61 60 -10 0 -20 3
-22 8 -7 11 67 452 81 485 7 16 12 34 12 42 0 26 52 300 59 307 3 4 6 -15 6
-42 0 -26 -3 -43 -7 -37 -5 8 -8 8 -8 2 0 -6 5 -16 10 -21 15 -15 30 -74 19
-74 -5 0 -9 -14 -9 -32 0 -31 0 -31 18 -12 10 10 19 24 20 29 4 29 30 117 31
103 1 -10 8 -18 17 -18 10 0 14 6 11 15 -9 23 6 25 33 4 14 -11 18 -17 9 -14
-10 4 -19 0 -22 -9 -4 -9 -13 -16 -22 -16 -8 0 -15 -5 -15 -11 0 -6 7 -8 15
-5 8 3 23 9 32 13 12 5 15 2 10 -10 -5 -13 -1 -17 14 -17 11 0 17 4 14 10 -4
6 23 9 74 7 75 -2 103 4 87 20 -4 4 -16 2 -26 -5 -11 -7 -20 -8 -20 -3 0 5 9
13 20 16 20 6 28 25 11 25 -6 0 -25 -9 -43 -19 -25 -15 -43 -18 -72 -13 l-40
7 28 13 c15 7 24 8 21 2 -3 -5 2 -10 12 -10 10 0 23 10 28 23 6 12 18 22 27
22 9 0 20 4 24 8 4 4 1 7 -6 7 -9 0 -6 7 8 20 23 22 37 27 26 9 -4 -7 -1 -10
7 -7 8 3 13 11 11 18 -2 8 3 10 13 6 9 -3 13 -2 10 3 -3 5 3 12 12 14 10 3 1
3 -20 2 -20 -2 -34 1 -31 6 3 5 -2 9 -10 9 -9 0 -16 5 -16 11 0 7 9 9 23 5 12
-3 69 -13 127 -22 58 -9 233 -38 390 -64 250 -42 288 -46 307 -34 32 20 44 18
94 -16 63 -43 84 -39 151 25 52 51 56 58 51 90 -4 28 -2 35 11 35 9 0 17 -6
18 -12 0 -7 2 -17 3 -23 2 -5 3 -16 4 -23 0 -7 5 -11 9 -8 14 9 -3 94 -24 117
-10 12 -40 32 -67 45 -120 61 -277 33 -277 -51 0 -16 -5 -25 -16 -25 -42 0
-323 63 -359 80 -22 11 -65 26 -95 34 -37 10 -46 15 -27 15 34 1 38 36 6 44
-16 4 -20 11 -16 26 3 11 -1 26 -9 32 -12 10 -12 15 1 35 8 13 15 30 15 38 0
24 -22 66 -31 60 -5 -3 -6 2 -3 10 3 9 10 13 15 10 5 -3 7 1 4 8 -3 7 5 25 17
39 l23 27 203 -74 c228 -84 228 -84 262 -8 25 59 25 72 0 49 -11 -10 -20 -26
-20 -35 0 -10 -6 -23 -14 -29 -17 -14 -130 7 -236 44 -41 15 -82 29 -92 32
-14 4 -34 46 -30 65 1 4 -6 4 -15 1 -13 -5 -15 -3 -9 13 4 10 10 33 12 49 3
17 7 40 10 53 8 40 -12 23 -23 -20z m3727 -246 c0 -5 -15 -13 -32 -19 -18 -6
-109 -39 -203 -73 -345 -125 -587 -210 -602 -210 -7 0 -13 4 -13 8 0 12 46 32
73 32 12 0 82 23 157 50 329 122 596 219 608 219 6 1 12 -3 12 -7z m-4740
-136 c0 -11 -19 -15 -25 -6 -3 5 1 10 9 10 9 0 16 -2 16 -4z m37 -2 c-3 -3
-12 -4 -19 -1 -8 3 -5 6 6 6 11 1 17 -2 13 -5z m830 -80 c-3 -3 -12 -4 -19 -1
-8 3 -5 6 6 6 11 1 17 -2 13 -5z m3534 -21 c-19 -4 -21 -7 -10 -14 11 -7 11
-9 -3 -9 -9 0 -24 3 -34 7 -16 6 -16 7 2 14 10 4 30 7 44 7 l25 -1 -24 -4z
m-4491 -23 c0 -5 -5 -10 -11 -10 -5 0 -7 5 -4 10 3 6 8 10 11 10 2 0 4 -4 4
-10z m3824 -21 c-10 -17 -96 -69 -113 -69 -8 0 8 11 36 25 28 15 57 33 63 40
15 17 24 20 14 4z m141 -19 c0 -8 -125 -59 -340 -137 -187 -67 -341 -123 -342
-123 -12 0 1 29 15 35 9 3 121 44 247 90 127 46 268 100 315 119 89 36 105 38
105 16z m-1835 -44 c0 -23 -17 -37 -36 -30 -18 6 -18 6 -2 -7 11 -8 14 -19 10
-26 -13 -20 -51 12 -45 37 3 11 0 20 -6 20 -6 0 -11 5 -11 12 0 6 7 4 18 -5
25 -23 42 -21 42 3 0 13 5 18 15 14 8 -4 15 -11 15 -18z m-1580 -10 c0 -2 -7
-7 -16 -10 -8 -3 -12 -2 -9 4 6 10 25 14 25 6z m1610 -18 c0 -15 -20 -48 -29
-48 -6 0 -7 15 -2 51 2 9 31 6 31 -3z m1497 6 c-3 -3 -12 -4 -19 -1 -8 3 -5 6
6 6 11 1 17 -2 13 -5z m-40 -10 c-3 -3 -12 -4 -19 -1 -8 3 -5 6 6 6 11 1 17
-2 13 -5z m-40 -10 c-3 -3 -12 -4 -19 -1 -8 3 -5 6 6 6 11 1 17 -2 13 -5z
m-3610 -26 c-3 -8 -6 -5 -6 6 -1 11 2 17 5 13 3 -3 4 -12 1 -19z m3460 -14
c-3 -3 -12 -4 -19 -1 -8 3 -5 6 6 6 11 1 17 -2 13 -5z m-80 -20 c-3 -3 -12 -4
-19 -1 -8 3 -5 6 6 6 11 1 17 -2 13 -5z m-1190 -70 c-3 -3 -12 -4 -19 -1 -8 3
-5 6 6 6 11 1 17 -2 13 -5z m-2210 -36 c-3 -8 -6 -5 -6 6 -1 11 2 17 5 13 3
-3 4 -12 1 -19z m2420 6 c-3 -3 -12 -4 -19 -1 -8 3 -5 6 6 6 11 1 17 -2 13 -5z
m50 -10 c-3 -3 -12 -4 -19 -1 -8 3 -5 6 6 6 11 1 17 -2 13 -5z m848 -4 c3 -5
-3 -10 -14 -10 -12 0 -21 5 -21 10 0 6 6 10 14 10 8 0 18 -4 21 -10z m-945
-36 c0 -2 -7 -4 -15 -4 -8 0 -15 4 -15 10 0 5 7 7 15 4 8 -4 15 -8 15 -10z
m861 -12 c9 -23 8 -23 -44 -17 -51 7 -76 15 -44 15 10 0 17 7 17 16 0 26 61
14 71 -14z m-756 8 c42 -11 1 -11 -50 -1 -34 7 -35 9 -10 9 17 0 44 -4 60 -8z
m272 4 c-3 -3 -12 -4 -19 -1 -8 3 -5 6 6 6 11 1 17 -2 13 -5z m50 -10 c-3 -3
-12 -4 -19 -1 -8 3 -5 6 6 6 11 1 17 -2 13 -5z m-389 -27 c23 -18 12 -25 -28
-15 -46 12 -57 38 -12 30 15 -2 33 -9 40 -15z m445 16 c-7 -2 -19 -2 -25 0 -7
3 -2 5 12 5 14 0 19 -2 13 -5z m54 -9 c-3 -3 -12 -4 -19 -1 -8 3 -5 6 6 6 11
1 17 -2 13 -5z m-318 -20 c1 -1 0 -7 -4 -13 -10 -16 -97 -13 -120 5 -19 15
-19 15 6 9 15 -4 30 -2 33 4 5 8 73 5 85 -5z m478 0 c-3 -3 -12 -4 -19 -1 -8
3 -5 6 6 6 11 1 17 -2 13 -5z m106 -21 c-7 -2 -19 -2 -25 0 -7 3 -2 5 12 5 14
0 19 -2 13 -5z m54 -9 c-3 -3 -12 -4 -19 -1 -8 3 -5 6 6 6 11 1 17 -2 13 -5z
m-3256 -57 c-10 -9 -11 -8 -5 6 3 10 9 15 12 12 3 -3 0 -11 -7 -18z m3516 17
c-3 -3 -12 -4 -19 -1 -8 3 -5 6 6 6 11 1 17 -2 13 -5z m56 -11 c-7 -2 -19 -2
-25 0 -7 3 -2 5 12 5 14 0 19 -2 13 -5z m164 1 c-3 -3 -12 -4 -19 -1 -8 3 -5
6 6 6 11 1 17 -2 13 -5z m-74 -11 c-13 -2 -33 -2 -45 0 -13 2 -3 4 22 4 25 0
35 -2 23 -4z m144 1 c-3 -3 -12 -4 -19 -1 -8 3 -5 6 6 6 11 1 17 -2 13 -5z
m-8 -20 c11 -10 -10 -13 -57 -7 -29 3 -52 10 -52 15 0 9 99 1 109 -8z m261 6
c0 -5 -7 -10 -16 -10 -8 0 -12 5 -9 10 3 6 10 10 16 10 5 0 9 -4 9 -10z
m-4060 -25 c0 -8 -2 -15 -4 -15 -2 0 -6 7 -10 15 -3 8 -1 15 4 15 6 0 10 -7
10 -15z m2470 11 c0 -3 -4 -8 -10 -11 -5 -3 -10 -1 -10 4 0 6 5 11 10 11 6 0
10 -2 10 -4z m1373 -3 c-7 -2 -19 -2 -25 0 -7 3 -2 5 12 5 14 0 19 -2 13 -5z
m50 -10 c-7 -2 -19 -2 -25 0 -7 3 -2 5 12 5 14 0 19 -2 13 -5z m61 -5 c-3 -4
-14 -8 -25 -8 -11 0 -18 4 -15 8 2 4 14 8 25 8 11 0 17 -4 15 -8z m46 -8 c0
-5 -9 -10 -21 -10 -11 0 -17 5 -14 10 3 6 13 10 21 10 8 0 14 -4 14 -10z m50
-10 c0 -5 -9 -10 -20 -10 -11 0 -20 5 -20 10 0 6 9 10 20 10 11 0 20 -4 20
-10z m47 -6 c-3 -3 -12 -4 -19 -1 -8 3 -5 6 6 6 11 1 17 -2 13 -5z m-4097 -8
c0 -11 -19 -15 -25 -6 -3 5 1 10 9 10 9 0 16 -2 16 -4z m4143 -3 c-7 -2 -19
-2 -25 0 -7 3 -2 5 12 5 14 0 19 -2 13 -5z m60 -10 c-7 -2 -19 -2 -25 0 -7 3
-2 5 12 5 14 0 19 -2 13 -5z m44 -9 c-3 -3 -12 -4 -19 -1 -8 3 -5 6 6 6 11 1
17 -2 13 -5z m53 2 c0 -11 -19 -15 -25 -6 -3 5 1 10 9 10 9 0 16 -2 16 -4z
m-4323 -53 c-3 -10 -5 -4 -5 12 0 17 2 24 5 18 2 -7 2 -21 0 -30z m4420 31
c-3 -3 -12 -4 -19 -1 -8 3 -5 6 6 6 11 1 17 -2 13 -5z m106 -21 c-7 -2 -19 -2
-25 0 -7 3 -2 5 12 5 14 0 19 -2 13 -5z m57 -3 c0 -5 -7 -10 -15 -10 -8 0 -15
5 -15 10 0 6 7 10 15 10 8 0 15 -4 15 -10z m89 -16 c10 -10 -8 -13 -42 -7 -20
3 -37 10 -37 15 0 9 69 2 79 -8z m51 -13 c0 -5 -9 -7 -20 -4 -11 3 -20 7 -20
9 0 2 9 4 20 4 11 0 20 -4 20 -9z m-4723 -16 c0 -8 -4 -15 -9 -15 -4 0 -8 7
-8 15 0 8 4 15 8 15 5 0 9 -7 9 -15z m4765 3 c-9 -9 -15 -9 -24 0 -9 9 -7 12
12 12 19 0 21 -3 12 -12z m43 -18 c3 -6 -1 -7 -9 -4 -18 7 -21 14 -7 14 6 0
13 -4 16 -10z m-4815 -35 c0 -8 -4 -17 -10 -20 -6 -4 -10 5 -10 20 0 15 4 24
10 20 6 -3 10 -12 10 -20z m4840 5 c0 -5 -2 -10 -4 -10 -3 0 -8 5 -11 10 -3 6
-1 10 4 10 6 0 11 -4 11 -10z m20 -39 c0 -6 -4 -13 -10 -16 -5 -3 -10 1 -10 9
0 9 5 16 10 16 6 0 10 -4 10 -9z m-4877 -44 c-3 -20 -10 -37 -14 -37 -12 0
-11 10 2 49 14 41 20 35 12 -12z m4877 -8 c0 -6 -4 -7 -10 -4 -5 3 -10 11 -10
16 0 6 5 7 10 4 6 -3 10 -11 10 -16z m-253 -25 c-3 -3 -12 -4 -19 -1 -8 3 -5
6 6 6 11 1 17 -2 13 -5z m240 -16 c-3 -8 -6 -5 -6 6 -1 11 2 17 5 13 3 -3 4
-12 1 -19z m-180 6 c-3 -3 -12 -4 -19 -1 -8 3 -5 6 6 6 11 1 17 -2 13 -5z
m-4700 -26 c-3 -8 -6 -5 -6 6 -1 11 2 17 5 13 3 -3 4 -12 1 -19z m4870 -20
c-3 -8 -6 -5 -6 6 -1 11 2 17 5 13 3 -3 4 -12 1 -19z m-4867 -18 c0 -5 -4 -10
-10 -10 -5 0 -10 5 -10 10 0 6 5 10 10 10 6 0 10 -4 10 -10z m-14 -67 c-10
-10 -19 5 -10 18 6 11 8 11 12 0 2 -7 1 -15 -2 -18z m-66 -5 c25 -27 26 -54 2
-67 -14 -8 -24 -39 -40 -133 -41 -231 -46 -287 -29 -301 17 -13 17 -7 -49
-492 -24 -178 -29 -205 -37 -194 -7 8 -96 157 -222 369 -199 335 -220 371
-251 428 l-29 54 24 16 c48 34 586 341 598 342 7 0 21 -10 33 -22z m60 -33 c0
-8 -2 -15 -4 -15 -2 0 -6 7 -10 15 -3 8 -1 15 4 15 6 0 10 -7 10 -15z m410
-56 c33 -14 37 -18 15 -13 -16 3 -48 8 -70 11 l-40 5 21 -22 c11 -12 38 -28
60 -36 38 -15 38 -15 6 -10 -39 7 -92 41 -92 60 0 32 35 34 100 5z m4420 -169
c0 -5 -5 -10 -11 -10 -5 0 -7 5 -4 10 3 6 8 10 11 10 2 0 4 -4 4 -10z m-43
-192 c-3 -8 -6 -5 -6 6 -1 11 2 17 5 13 3 -3 4 -12 1 -19z m3 -33 c0 -8 -4
-15 -10 -15 -5 0 -7 7 -4 15 4 8 8 15 10 15 2 0 4 -7 4 -15z m-14 -51 c-3 -9
-6 -24 -6 -35 0 -10 -4 -19 -8 -19 -4 0 -6 16 -4 35 2 19 9 35 14 35 6 0 7 -7
4 -16z m-26 -173 c0 -6 -4 -13 -10 -16 -5 -3 -10 1 -10 9 0 9 5 16 10 16 6 0
10 -4 10 -9z m-10 -51 c0 -5 -4 -10 -10 -10 -5 0 -10 5 -10 10 0 6 5 10 10 10
6 0 10 -4 10 -10z m-10 -45 c0 -8 -4 -15 -10 -15 -5 0 -7 7 -4 15 4 8 8 15 10
15 2 0 4 -7 4 -15z m-18 -87 c-7 -7 -12 -8 -12 -2 0 14 12 26 19 19 2 -3 -1
-11 -7 -17z m-4359 -5 c-7 -2 -19 -2 -25 0 -7 3 -2 5 12 5 14 0 19 -2 13 -5z
m4252 -33 c33 -7 67 -16 75 -22 12 -7 11 -8 -5 -5 -11 3 -49 11 -85 17 -36 7
-69 17 -75 23 -7 6 -3 7 10 4 11 -3 47 -11 80 -17z m105 0 c0 -5 -4 -10 -10
-10 -5 0 -10 5 -10 10 0 6 5 10 10 10 6 0 10 -4 10 -10z m-336 -25 c15 -3 26
-9 22 -12 -3 -4 0 -16 8 -29 14 -21 12 -34 -6 -34 -4 0 -8 7 -8 15 0 8 -8 15
-17 15 -15 0 -16 2 -3 10 12 8 12 10 -3 16 -9 3 -29 3 -44 -1 -21 -5 -24 -8
-12 -16 12 -7 11 -9 -3 -9 -26 0 -30 17 -8 33 11 7 17 16 14 20 -6 5 0 5 60
-8z m-6 -86 c-10 -7 -10 -9 0 -10 6 -1 17 -3 22 -4 6 -1 15 -3 21 -4 5 0 8 -5
5 -10 -6 -9 -54 -7 -63 3 -4 3 -12 1 -18 -4 -9 -8 -14 -6 -19 5 -3 8 -15 15
-26 15 -11 0 -20 5 -20 10 0 12 7 12 48 1 20 -6 32 -6 32 0 0 5 -4 9 -10 9 -5
0 -10 11 -10 25 l0 24 26 -26 c20 -20 23 -28 12 -34z m-73 -59 c-8 -13 52 -32
77 -25 18 5 20 4 8 -4 -25 -18 -56 -12 -84 14 -28 26 -38 58 -11 35 8 -7 13
-16 10 -20z m81 -5 c-11 -8 -25 -15 -30 -15 -6 0 -2 7 8 15 11 8 25 15 30 15
6 0 2 -7 -8 -15z m-4539 -57 c-3 -8 -6 -5 -6 6 -1 11 2 17 5 13 3 -3 4 -12 1
-19z m-40 -320 c-3 -8 -6 -5 -6 6 -1 11 2 17 5 13 3 -3 4 -12 1 -19z m19 -73
c4 -8 12 -15 20 -15 8 0 14 -4 14 -9 0 -5 16 -12 35 -15 19 -4 35 -11 35 -16
0 -12 -17 -13 -24 -1 -3 4 -20 11 -37 15 -26 5 -69 38 -69 53 0 10 22 1 26
-12z m154 -65 c0 -5 -4 -10 -9 -10 -6 0 -13 5 -16 10 -3 6 1 10 9 10 9 0 16
-4 16 -10z m50 -10 c0 -5 -6 -10 -14 -10 -8 0 -18 5 -21 10 -3 6 3 10 14 10
12 0 21 -4 21 -10z m45 -10 c-3 -5 -12 -7 -20 -3 -21 7 -19 13 6 13 11 0 18
-4 14 -10z m48 -7 c-7 -2 -19 -2 -25 0 -7 3 -2 5 12 5 14 0 19 -2 13 -5z m50
-10 c-7 -2 -19 -2 -25 0 -7 3 -2 5 12 5 14 0 19 -2 13 -5z m57 -9 c0 -2 -9 -4
-20 -4 -11 0 -20 4 -20 9 0 5 9 7 20 4 11 -3 20 -7 20 -9z m43 -11 c-7 -2 -19
-2 -25 0 -7 3 -2 5 12 5 14 0 19 -2 13 -5z m44 -9 c-3 -3 -12 -4 -19 -1 -8 3
-5 6 6 6 11 1 17 -2 13 -5z m4230 -26 c-3 -8 -6 -5 -6 6 -1 11 2 17 5 13 3 -3
4 -12 1 -19z m-20 -90 c-3 -8 -6 -5 -6 6 -1 11 2 17 5 13 3 -3 4 -12 1 -19z
m-50 -210 c-3 -8 -6 -5 -6 6 -1 11 2 17 5 13 3 -3 4 -12 1 -19z m-2340 6 c-3
-3 -12 -4 -19 -1 -8 3 -5 6 6 6 11 1 17 -2 13 -5z m2313 -174 c0 -5 -5 -10
-11 -10 -5 0 -7 5 -4 10 3 6 8 10 11 10 2 0 4 -4 4 -10z m-10 -40 c0 -5 -5
-10 -11 -10 -5 0 -7 5 -4 10 3 6 8 10 11 10 2 0 4 -4 4 -10z m-10 -34 c0 -3
-4 -8 -10 -11 -5 -3 -10 -1 -10 4 0 6 5 11 10 11 6 0 10 -2 10 -4z m-26 -41
c-4 -8 -8 -15 -10 -15 -2 0 -4 7 -4 15 0 8 4 15 10 15 5 0 7 -7 4 -15z m-327
-11 c-3 -3 -12 -4 -19 -1 -8 3 -5 6 6 6 11 1 17 -2 13 -5z m50 -10 c-3 -3 -12
-4 -19 -1 -8 3 -5 6 6 6 11 1 17 -2 13 -5z m38 -4 c3 -5 2 -10 -4 -10 -5 0
-13 5 -16 10 -3 6 -2 10 4 10 5 0 13 -4 16 -10z m215 0 c0 -5 -7 -10 -16 -10
-8 0 -12 5 -9 10 3 6 10 10 16 10 5 0 9 -4 9 -10z m-130 -10 c0 -5 -4 -10 -10
-10 -5 0 -10 5 -10 10 0 6 5 10 10 10 6 0 10 -4 10 -10z m47 -6 c-3 -3 -12 -4
-19 -1 -8 3 -5 6 6 6 11 1 17 -2 13 -5z m38 -4 c-3 -5 -10 -10 -16 -10 -5 0
-9 5 -9 10 0 6 7 10 16 10 8 0 12 -4 9 -10z"/>
<path d="M1060 3920 c0 -8 5 -22 10 -30 9 -13 10 -13 10 0 0 8 -5 22 -10 30
-9 13 -10 13 -10 0z"/>
<path d="M2290 3925 c0 -7 61 -37 66 -33 2 3 -12 12 -31 21 -19 9 -35 15 -35
12z"/>
<path d="M4297 3904 c-3 -3 -2 -16 3 -27 4 -12 14 -42 21 -67 9 -31 14 -39 17
-26 4 18 5 18 23 -5 l19 -24 -14 40 c-19 55 -48 115 -56 115 -4 0 -9 -3 -13
-6z"/>
<path d="M4730 3905 c0 -5 5 -17 10 -25 5 -8 10 -10 10 -5 0 6 -5 17 -10 25
-5 8 -10 11 -10 5z"/>
<path d="M2415 3860 c3 -5 14 -10 23 -10 15 0 15 2 2 10 -20 13 -33 13 -25 0z"/>
<path d="M4270 3834 c0 -8 5 -12 10 -9 6 4 8 11 5 16 -9 14 -15 11 -15 -7z"/>
<path d="M3582 3790 c0 -19 2 -27 5 -17 2 9 2 25 0 35 -3 9 -5 1 -5 -18z"/>
<path d="M3948 3807 c-16 -6 -28 -15 -28 -19 0 -7 55 16 69 28 7 7 -13 2 -41
-9z"/>
<path d="M3505 3717 c-18 -24 -45 -78 -45 -93 0 -23 -16 -16 -29 12 -18 41
-25 20 -10 -31 13 -43 30 -57 44 -35 4 6 25 20 48 31 39 20 40 22 22 35 -14
10 -19 25 -18 54 2 44 2 44 -12 27z"/>
<path d="M4374 3710 c3 -14 6 -33 6 -42 0 -10 5 -18 10 -18 11 0 3 45 -12 70
-7 11 -8 8 -4 -10z"/>
<path d="M3530 3696 c0 -8 7 -21 15 -29 8 -8 11 -17 8 -21 -4 -3 -1 -6 5 -6
20 0 24 21 8 45 -18 28 -36 33 -36 11z"/>
<path d="M3685 3680 c-39 -26 -25 -26 17 0 18 11 29 20 23 20 -5 0 -23 -9 -40
-20z"/>
<path d="M4305 3690 c3 -5 8 -10 11 -10 2 0 4 5 4 10 0 6 -5 10 -11 10 -5 0
-7 -4 -4 -10z"/>
<path d="M3620 3680 c0 -5 5 -10 11 -10 5 0 7 5 4 10 -3 6 -8 10 -11 10 -2 0
-4 -4 -4 -10z"/>
<path d="M955 3638 l-16 -33 21 24 c11 13 20 27 20 32 0 18 -10 8 -25 -23z"/>
<path d="M3630 3650 c0 -5 5 -10 10 -10 6 0 10 5 10 10 0 6 -4 10 -10 10 -5 0
-10 -4 -10 -10z"/>
<path d="M3598 3642 c-1 -5 -39 -32 -83 -62 -84 -55 -116 -81 -78 -61 19 10
28 8 52 -10 40 -29 75 -20 87 23 l10 32 20 -35 c29 -48 138 -164 180 -189 43
-27 58 -18 51 32 -7 50 -53 125 -126 207 -50 55 -59 61 -72 49 -17 -18 -40
-12 -32 8 3 8 3 14 0 14 -3 0 -7 -4 -9 -8z m2 -44 c0 -16 -3 -19 -11 -11 -6 6
-8 16 -5 22 11 17 16 13 16 -11z"/>
<path d="M4316 3585 c4 -8 8 -15 10 -15 2 0 4 7 4 15 0 8 -4 15 -10 15 -5 0
-7 -7 -4 -15z"/>
<path d="M98 3583 l-98 -4 0 -62 0 -62 58 0 c31 -1 59 2 62 5 7 9 201 41 251
42 24 0 45 -5 47 -11 5 -14 39 -14 47 -1 5 7 11 8 19 1 6 -5 60 -10 119 -10
108 -1 147 9 147 36 0 7 7 13 16 13 8 0 12 5 9 10 -4 6 6 11 22 11 26 2 25 2
-7 9 l-35 7 35 2 c19 1 44 6 55 10 19 8 -553 11 -747 4z m622 -82 c0 -5 -9 -7
-20 -4 -11 3 -20 7 -20 9 0 2 9 4 20 4 11 0 20 -4 20 -9z"/>
<path d="M3055 3200 c-3 -5 1 -10 10 -10 9 0 13 5 10 10 -3 6 -8 10 -10 10 -2
0 -7 -4 -10 -10z"/>
<path d="M2956 3141 l-48 -49 64 -11 c36 -6 72 -11 81 -11 9 0 17 -7 17 -16 0
-11 5 -14 16 -10 14 5 15 4 4 -9 -16 -20 -6 -19 14 1 17 16 21 35 9 32 -18 -3
-63 23 -63 36 0 19 -31 86 -40 86 -3 0 -27 -22 -54 -49z"/>
<path d="M4965 3156 c-21 -9 -26 -14 -16 -20 7 -5 16 -4 20 1 3 5 15 15 26 21
27 15 7 14 -30 -2z"/>
<path d="M1911 3099 c-10 -18 -10 -23 0 -30 7 -4 17 -5 21 -3 4 3 8 -2 8 -10
0 -9 5 -16 10 -16 6 0 10 5 10 11 0 7 9 9 21 6 13 -3 19 -1 16 6 -2 7 -20 12
-40 11 -38 0 -47 12 -25 34 7 7 8 12 2 12 -5 0 -15 -10 -23 -21z"/>
<path d="M3060 3105 c0 -8 4 -15 10 -15 5 0 7 7 4 15 -4 8 -8 15 -10 15 -2 0
-4 -7 -4 -15z"/>
<path d="M250 3090 c0 -5 5 -10 10 -10 6 0 10 5 10 10 0 6 -4 10 -10 10 -5 0
-10 -4 -10 -10z"/>
<path d="M2816 3087 c3 -10 9 -15 12 -12 3 3 0 11 -7 18 -10 9 -11 8 -5 -6z"/>
<path d="M3090 3090 c0 -5 7 -10 16 -10 8 0 12 5 9 10 -3 6 -10 10 -16 10 -5
0 -9 -4 -9 -10z"/>
<path d="M5106 3077 c3 -10 9 -15 12 -12 3 3 0 11 -7 18 -10 9 -11 8 -5 -6z"/>
<path d="M2680 3050 c14 -11 30 -20 35 -20 6 0 -1 9 -15 20 -14 11 -29 20 -35
20 -5 0 1 -9 15 -20z"/>
<path d="M1667 3043 c-4 -3 -7 -13 -7 -21 0 -12 3 -12 15 -2 10 8 32 11 62 7
26 -3 40 -2 32 3 -21 11 -95 21 -102 13z"/>
<path d="M2875 3023 c4 -10 8 -26 9 -35 0 -9 5 -16 10 -15 6 1 15 -15 20 -35
8 -31 6 -41 -9 -58 -29 -32 -116 -21 -161 21 l-23 21 -32 -23 c-18 -13 -27
-25 -20 -27 9 -3 9 -7 0 -18 -6 -8 -15 -11 -20 -8 -5 3 -9 1 -9 -5 0 -5 5 -11
11 -13 8 -3 6 -16 -5 -42 -21 -49 -21 -45 16 -94 33 -43 63 -53 86 -30 18 18
14 79 -7 119 l-19 35 47 -9 c65 -13 126 5 173 53 63 63 49 131 -36 165 -37 16
-38 16 -31 -2z"/>
<path d="M2650 2973 c0 -34 4 -64 8 -67 5 -3 19 2 31 10 20 15 21 18 7 33 -8
9 -22 32 -30 51 l-15 35 -1 -62z"/>
<path d="M3150 3010 c0 -5 5 -10 11 -10 5 0 7 5 4 10 -3 6 -8 10 -11 10 -2 0
-4 -4 -4 -10z"/>
<path d="M3181 3008 c-1 -9 -6 -18 -11 -20 -6 -2 -4 -11 5 -23 9 -11 14 -15
11 -8 -4 6 -1 13 4 15 8 2 8 11 1 28 -6 16 -10 19 -10 8z"/>
<path d="M5467 2964 c-12 -12 4 -24 31 -24 26 1 26 1 8 15 -22 17 -30 18 -39
9z"/>
<path d="M5036 2951 c-4 -7 -5 -15 -2 -18 9 -9 19 4 14 18 -4 11 -6 11 -12 0z"/>
<path d="M126 2841 c5 -5 33 -11 62 -13 69 -7 54 8 -17 15 -30 4 -50 3 -45 -2z"/>
<path d="M128 2813 c12 -2 30 -2 40 0 9 3 -1 5 -23 4 -22 0 -30 -2 -17 -4z"/>
<path d="M144 2778 c-7 -11 9 -14 56 -8 l45 6 -48 5 c-27 2 -51 1 -53 -3z"/>
<path d="M3506 2764 c-17 -12 -17 -14 -4 -14 9 0 20 5 23 11 11 17 2 18 -19 3z"/>
<path d="M3517 2739 c-9 -6 -21 -8 -26 -5 -5 3 -12 -2 -15 -11 -7 -18 9 -33
34 -32 10 0 11 2 2 6 -8 3 -5 10 10 23 26 21 22 34 -5 19z"/>
<path d="M145 2680 c27 -12 43 -12 25 0 -8 5 -22 9 -30 9 -10 0 -8 -3 5 -9z"/>
<path d="M3530 2656 c-5 -15 -10 -35 -10 -44 0 -13 -2 -13 -14 4 -12 15 -18
17 -33 8 -29 -18 -27 -39 3 -42 35 -3 44 -10 37 -27 -3 -8 -1 -15 4 -15 9 0
34 131 27 139 -2 2 -8 -8 -14 -23z m-30 -50 c0 -2 -7 -6 -15 -10 -8 -3 -15 -1
-15 4 0 6 7 10 15 10 8 0 15 -2 15 -4z"/>
<path d="M1490 2656 c0 -8 -6 -17 -12 -19 -8 -4 -7 -6 3 -6 19 -1 33 25 19 34
-6 4 -10 0 -10 -9z"/>
<path d="M3495 2660 c4 -6 11 -8 16 -5 14 9 11 15 -7 15 -8 0 -12 -5 -9 -10z"/>
<path d="M5981 2618 c-26 -82 -34 -169 -21 -245 6 -41 18 -92 25 -112 12 -32
14 -13 14 177 0 116 -2 212 -4 212 -2 0 -8 -15 -14 -32z"/>
<path d="M3320 2600 c19 -13 30 -13 30 0 0 6 -10 10 -22 10 -19 0 -20 -2 -8
-10z"/>
<path d="M3355 2560 c-6 -10 29 -33 78 -51 20 -7 37 -17 37 -22 0 -5 -7 -7
-15 -3 -12 4 -13 2 -3 -14 14 -23 2 -41 -13 -20 -9 13 -10 13 -6 0 6 -22 41
-19 45 5 5 32 12 48 18 42 8 -7 -17 -127 -26 -127 -4 0 -7 8 -6 17 2 29 -40
29 -48 1 -9 -35 -6 -56 4 -30 5 12 15 22 22 22 9 0 9 -3 0 -12 -13 -13 -16
-29 -4 -27 22 4 32 -3 32 -23 0 -42 12 -9 29 79 20 107 18 123 -17 123 -15 0
-48 11 -74 24 -27 13 -50 21 -53 16z"/>
<path d="M3655 2541 c-3 -6 2 -11 14 -11 10 0 22 -6 25 -12 3 -7 5 -4 3 7 -2
22 -31 32 -42 16z"/>
<path d="M3950 2530 c-9 -16 -8 -20 5 -20 8 0 15 9 15 20 0 11 -2 20 -5 20 -2
0 -9 -9 -15 -20z"/>
<path d="M3540 2510 c-24 -7 -24 -8 -5 -16 25 -10 84 -11 110 -1 49 20 -46 35
-105 17z"/>
<path d="M3940 2489 c0 -5 -4 -7 -10 -4 -5 3 -10 -1 -10 -9 0 -24 0 -24 -15
-53 -15 -29 -12 -43 11 -43 8 0 14 -4 14 -10 0 -13 -17 -13 -25 0 -10 16 -25
1 -25 -24 0 -16 8 -24 33 -31 26 -8 32 -14 29 -35 -2 -19 0 -21 7 -10 5 8 12
63 16 123 7 95 6 107 -9 107 -9 0 -16 -5 -16 -11z m-3 -81 c-2 -13 -4 -3 -4
22 0 25 2 35 4 23 2 -13 2 -33 0 -45z"/>
<path d="M3266 2371 c-3 -5 5 -8 19 -8 14 0 22 3 19 8 -3 5 -11 9 -19 9 -8 0
-16 -4 -19 -9z"/>
<path d="M3310 2322 c0 -8 49 -36 94 -52 24 -9 26 -13 15 -26 -12 -14 -14 -14
-20 3 -7 16 -8 15 -8 -4 -1 -22 30 -48 43 -36 3 3 6 17 6 30 0 13 4 23 9 23 4
0 4 -22 -2 -50 -10 -51 -20 -62 -31 -35 -3 8 -12 15 -19 15 -18 0 -32 -63 -17
-68 7 -3 5 -11 -6 -23 -9 -10 -13 -19 -8 -19 5 0 15 9 22 20 13 21 42 17 42
-6 0 -7 -6 -11 -14 -8 -8 3 -17 1 -20 -4 -3 -5 5 -12 18 -14 24 -5 25 -2 42
93 l17 98 48 -6 c53 -6 99 2 99 18 0 7 -27 9 -75 7 -41 -2 -75 -1 -75 2 0 3
-13 5 -29 6 -16 1 -48 11 -70 23 -44 22 -61 26 -61 13z"/>
<path d="M3617 2313 c-13 -13 -7 -20 18 -20 20 0 23 2 14 13 -13 15 -22 17
-32 7z"/>
<path d="M1391 2191 c-34 -47 -24 -82 13 -45 14 13 23 74 12 74 -3 0 -14 -13
-25 -29z"/>
<path d="M3226 2141 c-3 -5 4 -11 16 -14 25 -7 33 -3 23 12 -8 13 -32 14 -39
2z"/>
<path d="M3276 2079 c3 -6 27 -20 53 -32 25 -11 40 -22 34 -24 -7 -3 -13 -15
-13 -27 0 -12 6 -28 13 -35 10 -10 9 -11 -5 -6 -16 6 -22 -12 -42 -130 -2 -16
-16 -93 -30 -170 -15 -77 -29 -163 -32 -192 -6 -48 -5 -52 13 -50 16 1 25 14
37 53 9 29 15 58 14 66 -2 7 3 12 10 10 8 -1 11 2 6 9 -10 16 -11 70 -2 76 5
2 8 -6 9 -19 2 -32 24 62 54 232 36 199 29 183 79 176 41 -6 105 8 93 20 -3 4
-46 7 -94 9 -65 1 -101 8 -137 23 -54 25 -70 27 -60 11z m131 -114 c-11 -58
-21 -71 -23 -30 -1 14 2 25 7 25 5 0 9 14 9 30 0 17 4 30 8 30 5 0 4 -25 -1
-55z m-20 -97 c-3 -7 -5 -2 -5 12 0 14 2 19 5 13 2 -7 2 -19 0 -25z m-17 -78
l-11 -25 6 25 c2 14 5 34 6 45 2 19 2 19 6 0 2 -12 -1 -32 -7 -45z m-23 -6
c-3 -3 -12 -4 -19 -1 -8 3 -5 6 6 6 11 1 17 -2 13 -5z m11 -86 c-9 -54 -12
-58 -36 -57 -24 2 -24 2 -5 6 17 3 24 14 29 41 7 47 15 74 19 70 2 -2 -1 -29
-7 -60z"/>
<path d="M3564 2069 c-5 -8 -2 -10 8 -6 9 3 21 0 28 -6 10 -9 11 -9 8 3 -6 19
-34 25 -44 9z"/>
<path d="M5983 2010 c-6 -15 -7 -26 -1 -29 15 -5 20 5 16 31 l-5 23 -10 -25z"/>
<path d="M3880 1976 c0 -8 4 -17 9 -20 5 -4 7 3 4 14 -6 23 -13 26 -13 6z"/>
<path d="M5980 1960 c-9 -6 -10 -10 -3 -10 6 0 14 -10 16 -22 3 -17 5 -14 6
10 1 36 2 35 -19 22z"/>
<path d="M1412 1930 c0 -14 2 -19 5 -12 2 6 2 18 0 25 -3 6 -5 1 -5 -13z"/>
<path d="M5858 1913 c11 -19 49 -25 56 -8 3 8 -5 11 -22 8 -24 -3 -24 -2 -7 6
18 9 17 10 -8 10 -23 1 -26 -2 -19 -16z"/>
<path d="M5970 1740 c0 -5 5 -10 11 -10 5 0 7 5 4 10 -3 6 -8 10 -11 10 -2 0
-4 -4 -4 -10z"/>
<path d="M5277 1570 c-3 -11 -1 -20 4 -20 5 0 9 9 9 20 0 11 -2 20 -4 20 -2 0
-6 -9 -9 -20z"/>
<path d="M3302 1375 c0 -16 2 -22 5 -12 2 9 2 23 0 30 -3 6 -5 -1 -5 -18z"/>
<path d="M3236 1374 c-10 -25 -7 -54 5 -54 6 0 9 -7 5 -15 -3 -8 0 -15 7 -16
7 0 20 -2 30 -4 10 -2 17 3 17 11 0 9 -4 12 -10 9 -11 -7 -13 3 -10 53 1 26
-2 32 -18 32 -11 0 -23 -7 -26 -16z"/>
<path d="M3100 1290 c0 -5 5 -10 11 -10 5 0 7 5 4 10 -3 6 -8 10 -11 10 -2 0
-4 -4 -4 -10z"/>
<path d="M3216 1270 c-4 -23 -2 -36 6 -42 21 -13 38 -9 38 8 0 8 5 12 10 9 6
-4 8 -11 5 -16 -4 -5 -2 -9 3 -9 5 0 9 12 9 28 0 15 -2 22 -4 16 -6 -18 -44
-4 -52 19 -7 18 -9 16 -15 -13z"/>
<path d="M3120 1240 c0 -15 60 -49 100 -56 19 -4 39 -9 44 -12 18 -11 121 0
135 13 12 12 0 14 -80 12 -86 -1 -99 1 -143 26 -55 30 -56 31 -56 17z"/>
<path d="M3410 1230 c0 -7 6 -10 14 -7 8 3 17 2 20 -4 2 -5 3 -4 2 3 -3 17
-36 23 -36 8z"/>
<path d="M3196 1148 c-3 -13 -7 -36 -10 -53 -3 -16 -8 -45 -12 -62 -6 -30 -4
-33 19 -33 16 0 27 7 30 18 4 13 5 11 6 -5 2 -34 18 -28 25 8 9 46 7 71 -4 64
-5 -3 -10 1 -10 9 0 9 -5 16 -11 16 -6 0 -3 7 5 16 24 23 20 44 -9 44 -17 0
-26 -6 -29 -22z m44 -88 c0 -10 -31 -22 -38 -16 -2 3 -2 12 1 20 6 15 37 12
37 -4z"/>
<path d="M3261 1143 c0 -6 -4 -20 -7 -30 -5 -14 -4 -15 5 -7 7 7 11 20 8 30
-3 11 -5 14 -6 7z"/>
<path d="M3080 1017 c1 -14 36 -41 67 -51 19 -6 20 -10 11 -37 -5 -16 -7 -36
-4 -44 3 -8 1 -15 -3 -15 -9 0 -26 -78 -19 -85 1 -2 19 -6 39 -10 l36 -7 14
87 14 87 52 2 c35 1 59 7 70 19 16 16 16 17 -7 16 -14 0 -46 -4 -72 -8 -27 -4
-48 -5 -48 -1 0 4 -14 7 -30 8 -17 0 -51 12 -75 26 -27 14 -45 20 -45 13z
m139 -84 c-1 -10 -4 -29 -8 -43 l-7 -25 -8 23 c-8 25 0 62 15 62 5 0 9 -8 8
-17z m-24 -83 c4 -6 1 -18 -6 -26 -13 -16 -31 -6 -35 21 -3 17 31 21 41 5z"/>
<path d="M3370 1009 c0 -5 5 -7 10 -4 6 3 10 8 10 11 0 2 -4 4 -10 4 -5 0 -10
-5 -10 -11z"/>
<path d="M3040 790 c0 -6 20 -20 44 -32 37 -18 43 -24 35 -39 -5 -10 -9 -27
-9 -39 0 -19 5 -21 37 -18 32 3 38 8 45 36 5 19 13 30 19 26 18 -11 97 6 103
23 5 13 -1 14 -51 7 -83 -11 -106 -8 -162 21 -56 28 -61 29 -61 15z"/>
<path d="M3350 776 c0 -9 5 -16 10 -16 6 0 10 4 10 9 0 6 -4 13 -10 16 -5 3
-10 -1 -10 -9z"/>
<path d="M3100 621 c0 -11 -3 -26 -6 -35 -4 -11 -1 -16 10 -16 9 0 16 8 16 20
0 11 5 20 11 20 5 0 8 -4 5 -9 -4 -5 0 -12 6 -14 10 -4 10 -6 1 -6 -7 -1 -13
-6 -13 -12 0 -5 5 -7 11 -3 9 5 10 -3 5 -29 -4 -19 -3 -38 2 -41 5 -3 12 13
16 37 4 23 9 58 13 77 5 29 4 33 -8 24 -8 -7 -22 -8 -34 -3 -31 12 -35 11 -35
-10z"/>
</g>
</svg>
